<svg version="1.1" id="Слой_1" xmlns="http://www.w3.org/2000/svg" x="0" y="0" viewBox="0 0 17 19" xml:space="preserve"><style>.st0{fill-rule:evenodd;clip-rule:evenodd}</style><path class="st0" d="M8.25 18.93c.15.09.34.09.49 0l-.25-.43c-.24.44-.24.44-.24.43z"/><path class="st0" d="M8.5 0C3.8 0 0 3.86 0 8.6c0 2.92 2.15 5.52 4.17 7.34 1.02.92 2.04 1.67 2.8 2.19.38.26.7.46.93.6.11.07.2.12.26.16.03.02.05.03.07.04l.02.01h.01l.24-.44.25.43h.01l.02-.01c.02-.01.04-.02.07-.04.06-.04.15-.09.26-.16.22-.14.54-.34.93-.6.76-.52 1.78-1.26 2.8-2.19C14.85 14.12 17 11.52 17 8.6 17 3.86 13.2 0 8.5 0zm0 1C12.64 1 16 4.4 16 8.6c0 1.79-.99 3.52-2.29 5.03C12.52 12.04 10.64 11 8.5 11s-4.02 1.04-5.21 2.63C1.99 12.12 1 10.39 1 8.6 1 4.4 4.36 1 8.5 1zm3.67 14.19c-.98.88-1.96 1.6-2.7 2.1-.37.25-.67.44-.89.57-.03.02-.06.03-.08.05-.03-.02-.05-.03-.08-.05-.21-.13-.52-.32-.89-.57-.74-.5-1.72-1.22-2.7-2.1-.29-.26-.57-.54-.85-.82C4.98 12.94 6.63 12 8.5 12s3.52.94 4.51 2.38c-.27.28-.56.55-.84.81z"/><path class="st0" d="M8.5 9.5c1.66 0 3-1.34 3-3s-1.34-3-3-3-3 1.34-3 3 1.34 3 3 3zm0-5c1.1 0 2 .9 2 2s-.9 2-2 2-2-.9-2-2 .9-2 2-2z"/></svg>