<svg xmlns="http://www.w3.org/2000/svg" viewBox="0 0 450.14 342.74"><path d="M284.2 0c11.3 4 18.4 13.2 26.5 21.2 43.5 43.4 86.9 86.9 130.4 130.3 8.1 8.1 11 17.3 7.7 28.3-1.3 4.4-3.9 8-7.1 11.2-47.6 47.6-95.1 95.1-142.7 142.6-8.1 8.1-17.6 11.5-28.7 7.4-10-3.7-16.4-11.1-18-21.8-1.5-9.3 2.8-16.6 9.1-22.9l65.5-65.5c18.9-18.9 37.8-37.9 56.8-56.7 2-2 1.8-2.9-.1-4.8-40.6-40.5-81.1-81-121.7-121.5-3.5-3.5-6.7-7.1-8.4-11.8-4.3-11.8.9-24.8 12.2-31.5 2.9-1.7 6.2-2.2 8.9-4.2 3.4-.3 6.5-.3 9.6-.3zm-252 0c11.3 4 18.4 13.2 26.5 21.2 43.5 43.4 86.9 86.9 130.4 130.3 8.1 8.1 11 17.3 7.7 28.3-1.3 4.4-3.9 8-7.1 11.2-47.6 47.6-95.1 95.1-142.7 142.6-8.1 8.1-17.6 11.5-28.7 7.4-10-3.7-16.4-11.1-18-21.8-1.5-9.3 2.8-16.6 9.1-22.9l65.5-65.5c18.9-18.9 37.8-37.9 56.8-56.7 2-2 1.8-2.9-.1-4.8C91 128.8 50.5 88.3 9.9 47.8 6.4 44.3 3.2 40.7 1.5 36c-4.3-11.8.9-24.8 12.2-31.5 2.9-1.7 6.2-2.2 8.9-4.2 3.3-.3 6.5-.3 9.6-.3z"/></svg>