<svg viewBox="0 0 24 20.86" xmlns="http://www.w3.org/2000/svg"><g data-name="Camada 2"><path d="M23.5 3.86h-6.69V1.5a1.5 1.5 0 00-1.5-1.5H8.69a1.5 1.5 0 00-1.5 1.5v2.36H.5a.5.5 0 00-.5.5v6a2.5 2.5 0 001.5 2.29v7.71a.5.5 0 00.5.5h20a.5.5 0 00.5-.5v-7.71a2.5 2.5 0 001.5-2.29v-6a.5.5 0 00-.5-.5zM8.19 1.5a.5.5 0 01.5-.5h6.63a.5.5 0 01.5.5v2.36H8.19zM21.5 19.86h-19v-7H5v.6A1.5 1.5 0 006.48 15h1A1.5 1.5 0 009 13.46v-.6h6v.6a1.5 1.5 0 001.5 1.5h1a1.5 1.5 0 001.5-1.5v-.6h2.5zM6 12.36v-.81h2v1.9a.5.5 0 01-.5.5h-1a.5.5 0 01-.5-.5zm12 1.1a.5.5 0 01-.5.5h-1a.5.5 0 01-.5-.5v-1.9h2zm5-3.1a1.5 1.5 0 01-1.5 1.5H19v-.81a.5.5 0 00-.5-.5h-3a.5.5 0 00-.5.5v.81H9v-.81a.5.5 0 00-.5-.5h-3a.5.5 0 00-.5.5v.81H2.5a1.5 1.5 0 01-1.5-1.5v-5.5h22z" data-name="Camada 1"/></g></svg>