<svg xmlns="http://www.w3.org/2000/svg" viewBox="0 0 12.5 16.59"><path d="M6.25 0C2.8 0 0 2.8 0 6.25c0 4.36 5.83 9.95 6.08 10.18l.17.16.17-.16c.25-.24 6.08-5.82 6.08-10.18C12.5 2.8 9.7 0 6.25 0zm0 1.5C8.91 1.5 11 3.59 11 6.25c0 .81-.27 1.77-.77 2.78-.55 1.01-1.24 2.11-1.98 3.17-.4.53-.84 1.01-1.3 1.53-.23.25-.45.5-.67.75l-.03.02c-.72-.75-1.37-1.59-2.01-2.4-.93-1.17-1.54-2.11-1.97-3.06-.5-1.01-.77-1.98-.77-2.79 0-2.66 2.09-4.75 4.75-4.75z"/><path d="M6.25 9.5C8.1 9.5 9.5 8.1 9.5 6.25S8.1 3 6.25 3 3 4.4 3 6.25 4.4 9.5 6.25 9.5zm0-5C7.21 4.5 8 5.29 8 6.25S7.21 8 6.25 8 4.5 7.21 4.5 6.25 5.29 4.5 6.25 4.5z"/></svg>