<svg viewBox="0 0 128 128" xmlns="http://www.w3.org/2000/svg"><path d="M36 117c-1.66 0-3-1.34-3-3v-6c0-2.76-2.24-5-5-5H12c-2.76 0-5 2.24-5 5v6c0 1.66-1.34 3-3 3s-3-1.34-3-3v-6c0-6.07 4.93-11 11-11h16c6.07 0 11 4.93 11 11v6c0 1.66-1.34 3-3 3zM20 91c-7.17 0-13-5.83-13-13s5.83-13 13-13 13 5.83 13 13-5.83 13-13 13zm0-20c-3.86 0-7 3.14-7 7s3.14 7 7 7 7-3.14 7-7-3.14-7-7-7zm60 46c-1.66 0-3-1.34-3-3v-6c0-2.76-2.24-5-5-5H56c-2.76 0-5 2.24-5 5v6c0 1.66-1.34 3-3 3s-3-1.34-3-3v-6c0-6.07 4.93-11 11-11h16c6.07 0 11 4.93 11 11v6c0 1.66-1.34 3-3 3zM64 91c-7.17 0-13-5.83-13-13s5.83-13 13-13 13 5.83 13 13-5.83 13-13 13zm0-20c-3.86 0-7 3.14-7 7s3.14 7 7 7 7-3.14 7-7-3.14-7-7-7zm60 46c-1.66 0-3-1.34-3-3v-6c0-2.76-2.24-5-5-5h-16c-2.76 0-5 2.24-5 5v6c0 1.66-1.34 3-3 3s-3-1.34-3-3v-6c0-6.07 4.93-11 11-11h16c6.07 0 11 4.93 11 11v6c0 1.66-1.34 3-3 3zm-16-26c-7.17 0-13-5.83-13-13s5.83-13 13-13 13 5.83 13 13-5.83 13-13 13zm0-20c-3.86 0-7 3.14-7 7s3.14 7 7 7 7-3.14 7-7-3.14-7-7-7zM42 59c-7.17 0-13-5.83-13-13s5.83-13 13-13 13 5.83 13 13-5.83 13-13 13zm0-20c-3.86 0-7 3.14-7 7s3.14 7 7 7 7-3.14 7-7-3.14-7-7-7zm44 20c-7.17 0-13-5.83-13-13s5.83-13 13-13 13 5.83 13 13-5.83 13-13 13zm0-20c-3.86 0-7 3.14-7 7s3.14 7 7 7 7-3.14 7-7-3.14-7-7-7zM64 27c-7.17 0-13-5.83-13-13S56.83 1 64 1s13 5.83 13 13-5.83 13-13 13zm0-20c-3.86 0-7 3.14-7 7s3.14 7 7 7 7-3.14 7-7-3.14-7-7-7z"/></svg>