<svg height="512" width="512" xmlns="http://www.w3.org/2000/svg"><g fill="none" stroke="#000" stroke-linecap="round" stroke-linejoin="round" stroke-miterlimit="10" stroke-width="8"><path d="M112.933 352.679c-26.474-33.325-42.284-75.503-42.284-121.375C70.648 123.44 158.088 36 265.95 36s195.297 87.44 195.297 195.303c0 107.857-87.435 195.303-195.297 195.303-25.656 0-50.157-4.952-72.597-13.943"/><path d="M156.612 242.988a18.723 18.723 0 01-4.07-11.685c0-10.384 8.417-18.802 18.801-18.802s18.801 8.418 18.801 18.802-8.417 18.802-18.801 18.802a18.76 18.76 0 01-6.989-1.342m83.59-5.775a18.718 18.718 0 01-4.071-11.685c0-10.384 8.418-18.802 18.802-18.802 10.383 0 18.801 8.418 18.801 18.802s-8.418 18.802-18.801 18.802a18.76 18.76 0 01-6.989-1.342m83.588-5.775a18.717 18.717 0 01-4.07-11.685c0-10.384 8.417-18.802 18.8-18.802 10.385 0 18.803 8.418 18.803 18.802s-8.418 18.802-18.803 18.802c-2.469 0-4.828-.477-6.988-1.342M109.33 366.413L50.751 480m132.177-58.676L50.751 480"/></g></svg>