<svg xmlns="http://www.w3.org/2000/svg" style="position:absolute; width: 0; height: 0"><symbol viewBox="0 0 17 19" id="icon-application"><style><![CDATA[.st0{fill-rule:evenodd;clip-rule:evenodd}]]></style><path class="st0" d="M8.25 18.93c.15.09.34.09.49 0l-.25-.43c-.24.44-.24.44-.24.43z"></path><path class="st0" d="M8.5 0C3.8 0 0 3.86 0 8.6c0 2.92 2.15 5.52 4.17 7.34 1.02.92 2.04 1.67 2.8 2.19.38.26.7.46.93.6.11.07.2.12.26.16.03.02.05.03.07.04l.02.01h.01l.24-.44.25.43h.01l.02-.01c.02-.01.04-.02.07-.04.06-.04.15-.09.26-.16.22-.14.54-.34.93-.6.76-.52 1.78-1.26 2.8-2.19C14.85 14.12 17 11.52 17 8.6 17 3.86 13.2 0 8.5 0zm0 1C12.64 1 16 4.4 16 8.6c0 1.79-.99 3.52-2.29 5.03C12.52 12.04 10.64 11 8.5 11s-4.02 1.04-5.21 2.63C1.99 12.12 1 10.39 1 8.6 1 4.4 4.36 1 8.5 1zm3.67 14.19c-.98.88-1.96 1.6-2.7 2.1-.37.25-.67.44-.89.57-.03.02-.06.03-.08.05-.03-.02-.05-.03-.08-.05-.21-.13-.52-.32-.89-.57-.74-.5-1.72-1.22-2.7-2.1-.29-.26-.57-.54-.85-.82C4.98 12.94 6.63 12 8.5 12s3.52.94 4.51 2.38c-.27.28-.56.55-.84.81z"></path><path class="st0" d="M8.5 9.5c1.66 0 3-1.34 3-3s-1.34-3-3-3-3 1.34-3 3 1.34 3 3 3zm0-5c1.1 0 2 .9 2 2s-.9 2-2 2-2-.9-2-2 .9-2 2-2z"></path></symbol><symbol viewBox="0 0 128 128" id="icon-arrow-right"><path d="M64 0a64 64 0 1 0 64 64A64.07 64.07 0 0 0 64 0zm0 122a58 58 0 1 1 58-58 58.07 58.07 0 0 1-58 58z"></path><path d="M58.12 35.88a3 3 0 0 0-4.24 4.24L77.76 64 53.88 87.88a3 3 0 1 0 4.24 4.24l26-26a3 3 0 0 0 0-4.24z"></path></symbol><symbol viewBox="0 0 214.9 399.8" id="icon-arrow"><path d="M199.89 399.8c-3.98 0-7.8-1.58-10.61-4.39L4.39 210.51c-5.86-5.86-5.86-15.35 0-21.21L189.28 4.4c5.86-5.86 15.36-5.86 21.21-.01s5.86 15.36.01 21.22L36.21 199.9 210.5 374.19c5.86 5.86 5.86 15.35.01 21.21-2.82 2.82-6.64 4.4-10.62 4.4z"></path></symbol><symbol viewBox="0 0 24 24" id="icon-arrowback"><g id="arrowback-Layer_2" data-name="Layer 2"><g id="arrowback-arrow-back"><g id="arrowback-arrow-back-2" data-name="arrow-back"><path class="cls-1" transform="rotate(90 12 12)" d="M0 0h24v24H0z"></path><path class="cls-2" d="M19 11H7.14l3.63-4.36a1 1 0 1 0-1.54-1.28l-5 6a1.19 1.19 0 0 0-.09.15c0 .05 0 .08-.07.13A1 1 0 0 0 4 12a1 1 0 0 0 .07.36c0 .05 0 .08.07.13a1.19 1.19 0 0 0 .09.15l5 6A1 1 0 0 0 10 19a1 1 0 0 0 .64-.23 1 1 0 0 0 .13-1.41L7.14 13H19a1 1 0 0 0 0-2z"></path></g></g></g></symbol><symbol viewBox="0 0 450.14 342.74" id="icon-arrows"><path d="M284.2 0c11.3 4 18.4 13.2 26.5 21.2 43.5 43.4 86.9 86.9 130.4 130.3 8.1 8.1 11 17.3 7.7 28.3-1.3 4.4-3.9 8-7.1 11.2-47.6 47.6-95.1 95.1-142.7 142.6-8.1 8.1-17.6 11.5-28.7 7.4-10-3.7-16.4-11.1-18-21.8-1.5-9.3 2.8-16.6 9.1-22.9l65.5-65.5c18.9-18.9 37.8-37.9 56.8-56.7 2-2 1.8-2.9-.1-4.8-40.6-40.5-81.1-81-121.7-121.5-3.5-3.5-6.7-7.1-8.4-11.8-4.3-11.8.9-24.8 12.2-31.5 2.9-1.7 6.2-2.2 8.9-4.2 3.4-.3 6.5-.3 9.6-.3zM32.2 0c11.3 4 18.4 13.2 26.5 21.2 43.5 43.4 86.9 86.9 130.4 130.3 8.1 8.1 11 17.3 7.7 28.3-1.3 4.4-3.9 8-7.1 11.2-47.6 47.6-95.1 95.1-142.7 142.6-8.1 8.1-17.6 11.5-28.7 7.4-10-3.7-16.4-11.1-18-21.8-1.5-9.3 2.8-16.6 9.1-22.9l65.5-65.5c18.9-18.9 37.8-37.9 56.8-56.7 2-2 1.8-2.9-.1-4.8C91 128.8 50.5 88.3 9.9 47.8 6.4 44.3 3.2 40.7 1.5 36c-4.3-11.8.9-24.8 12.2-31.5 2.9-1.7 6.2-2.2 8.9-4.2 3.3-.3 6.5-.3 9.6-.3z"></path></symbol><symbol viewBox="0 0 24 20.86" id="icon-case-suit"><path d="M23.5 3.86h-6.69V1.5a1.5 1.5 0 0 0-1.5-1.5H8.69a1.5 1.5 0 0 0-1.5 1.5v2.36H.5a.5.5 0 0 0-.5.5v6a2.5 2.5 0 0 0 1.5 2.29v7.71a.5.5 0 0 0 .5.5h20a.5.5 0 0 0 .5-.5v-7.71a2.5 2.5 0 0 0 1.5-2.29v-6a.5.5 0 0 0-.5-.5zM8.19 1.5a.5.5 0 0 1 .5-.5h6.63a.5.5 0 0 1 .5.5v2.36H8.19zM21.5 19.86h-19v-7H5v.6A1.5 1.5 0 0 0 6.48 15h1A1.5 1.5 0 0 0 9 13.46v-.6h6v.6a1.5 1.5 0 0 0 1.5 1.5h1a1.5 1.5 0 0 0 1.5-1.5v-.6h2.5zM6 12.36v-.81h2v1.9a.5.5 0 0 1-.5.5h-1a.5.5 0 0 1-.5-.5zm12 1.1a.5.5 0 0 1-.5.5h-1a.5.5 0 0 1-.5-.5v-1.9h2zm5-3.1a1.5 1.5 0 0 1-1.5 1.5H19v-.81a.5.5 0 0 0-.5-.5h-3a.5.5 0 0 0-.5.5v.81H9v-.81a.5.5 0 0 0-.5-.5h-3a.5.5 0 0 0-.5.5v.81H2.5a1.5 1.5 0 0 1-1.5-1.5v-5.5h22z" data-name="Camada 1"></path></symbol><symbol viewBox="0 0 256 256" id="icon-check"><path d="M104 196a11.963 11.963 0 0 1-8.486-3.515l-56-55.995a12 12 0 0 1 16.97-16.971L104 167.029 207.514 63.52a12 12 0 0 1 16.97 16.97l-112 111.996A11.963 11.963 0 0 1 104 196z"></path></symbol><symbol viewBox="0 0 510 510" id="icon-clock"><g fill-opacity=".9"><path d="M255 0C114.75 0 0 114.75 0 255s114.75 255 255 255 255-114.75 255-255S395.25 0 255 0zm0 459c-112.2 0-204-91.8-204-204S142.8 51 255 51s204 91.8 204 204-91.8 204-204 204z"></path><path d="M267.75 127.5H229.5v153l132.6 81.6 20.4-33.15-114.75-68.85z"></path></g></symbol><symbol viewBox="0 0 540 540" id="icon-cross-circle"><rect x="19.333" y="19.333" width="501.333" height="501.333" rx="250.667" stroke="#fff" stroke-width="10.667"></rect><path d="M270 255.779l-71.113-71.112-14.22 14.22L255.78 270l-71.113 71.113 14.22 14.22L270 284.22l71.113 71.113 14.22-14.22L284.221 270l71.112-71.113-14.22-14.22L270 255.779z" fill="#fff"></path></symbol><symbol viewBox="0 0 311 311.07733" id="icon-cross"><path d="M16.035 311.078c-4.097 0-8.195-1.558-11.308-4.695-6.25-6.25-6.25-16.383 0-22.633L283.789 4.687c6.25-6.25 16.383-6.25 22.633 0s6.25 16.383 0 22.637L27.363 306.383a16.045 16.045 0 0 1-11.328 4.695zm0 0"></path><path d="M295.117 311.078a15.879 15.879 0 0 1-11.308-4.695L4.727 27.324c-6.25-6.254-6.25-16.386 0-22.636s16.382-6.25 22.636 0L306.422 283.75c6.25 6.25 6.25 16.383 0 22.633-3.137 3.117-7.23 4.695-11.305 4.695zm0 0"></path></symbol><symbol viewBox="0 0 24 24" id="icon-discord"><path fill="none" d="M0 0h24v24H0z"></path><path d="M13.914 14.58a8.998 8.998 0 0 1-.484.104 7.06 7.06 0 0 1-2.664-.01c-.154-.03-.372-.083-.653-.158l-.921 1.197c-2.273-.073-3.137-1.596-3.137-1.596 0-3.381 1.481-6.122 1.481-6.122 1.481-1.133 2.89-1.102 2.89-1.102l.403.525a1.12 1.12 0 0 1 .112-.01 8.527 8.527 0 0 1 2.314.01l.442-.525s1.41-.031 2.89 1.103c0 0 1.482 2.74 1.482 6.121 0 0-.875 1.522-3.148 1.596l-1.007-1.134zM10.076 11C9.475 11 9 11.45 9 12s.485 1 1.076 1c.6 0 1.075-.45 1.075-1 .01-.55-.474-1-1.075-1zm3.848 0c-.6 0-1.075.45-1.075 1s.485 1 1.075 1c.601 0 1.076-.45 1.076-1s-.475-1-1.076-1zM21 23l-4.99-5H19V4H5v14h11.003l.57 2H5a2 2 0 0 1-2-2V4a2 2 0 0 1 2-2h14a2 2 0 0 1 2 2v19z"></path></symbol><symbol viewBox="0 0 488.076 488.076" id="icon-downarrow"><path d="M0 49.017c0-13.824 11.207-25.03 25.03-25.03h438.017c13.824 0 25.029 11.207 25.029 25.03L262.81 455.745s-18.772 18.773-37.545 0C206.494 436.973 0 49.017 0 49.017z"></path></symbol><symbol viewBox="0 0 32 22" id="icon-email"><path d="M31 0H1C.45 0 0 .45 0 1v20c0 .55.45 1 1 1h30c.55 0 1-.45 1-1V1c0-.55-.45-1-1-1zM16 10.76L4.05 2h23.89L16 10.76zm-4.99-1.18L2 18.59V2.97l9.01 6.61zm1.63 1.2l2.77 2.03c.17.13.38.19.59.19s.42-.06.59-.19l2.77-2.03L28.59 20H3.41l9.23-9.22zm8.35-1.2L30 2.97v15.61l-9.01-9z"></path></symbol><symbol viewBox="0 0 16 16" id="icon-geo-thin"><path fill-rule="evenodd" d="M12.166 8.94C12.696 7.867 13 6.862 13 6A5 5 0 0 0 3 6c0 .862.305 1.867.834 2.94.524 1.062 1.234 2.12 1.96 3.07A31.481 31.481 0 0 0 8 14.58l.208-.22a31.493 31.493 0 0 0 1.998-2.35c.726-.95 1.436-2.008 1.96-3.07zM8 16s6-5.686 6-10A6 6 0 0 0 2 6c0 4.314 6 10 6 10z"></path><path fill-rule="evenodd" d="M8 8a2 2 0 1 0 0-4 2 2 0 0 0 0 4zm0 1a3 3 0 1 0 0-6 3 3 0 0 0 0 6z"></path></symbol><symbol viewBox="0 0 12.5 16.59" id="icon-geo"><path d="M6.25 0C2.8 0 0 2.8 0 6.25c0 4.36 5.83 9.95 6.08 10.18l.17.16.17-.16c.25-.24 6.08-5.82 6.08-10.18C12.5 2.8 9.7 0 6.25 0zm0 1.5C8.91 1.5 11 3.59 11 6.25c0 .81-.27 1.77-.77 2.78-.55 1.01-1.24 2.11-1.98 3.17-.4.53-.84 1.01-1.3 1.53-.23.25-.45.5-.67.75l-.03.02c-.72-.75-1.37-1.59-2.01-2.4-.93-1.17-1.54-2.11-1.97-3.06-.5-1.01-.77-1.98-.77-2.79 0-2.66 2.09-4.75 4.75-4.75z"></path><path d="M6.25 9.5C8.1 9.5 9.5 8.1 9.5 6.25S8.1 3 6.25 3 3 4.4 3 6.25 4.4 9.5 6.25 9.5zm0-5C7.21 4.5 8 5.29 8 6.25S7.21 8 6.25 8 4.5 7.21 4.5 6.25 5.29 4.5 6.25 4.5z"></path></symbol><symbol viewBox="0 0 128 128" id="icon-group"><path d="M36 117c-1.66 0-3-1.34-3-3v-6c0-2.76-2.24-5-5-5H12c-2.76 0-5 2.24-5 5v6c0 1.66-1.34 3-3 3s-3-1.34-3-3v-6c0-6.07 4.93-11 11-11h16c6.07 0 11 4.93 11 11v6c0 1.66-1.34 3-3 3zM20 91c-7.17 0-13-5.83-13-13s5.83-13 13-13 13 5.83 13 13-5.83 13-13 13zm0-20c-3.86 0-7 3.14-7 7s3.14 7 7 7 7-3.14 7-7-3.14-7-7-7zM80 117c-1.66 0-3-1.34-3-3v-6c0-2.76-2.24-5-5-5H56c-2.76 0-5 2.24-5 5v6c0 1.66-1.34 3-3 3s-3-1.34-3-3v-6c0-6.07 4.93-11 11-11h16c6.07 0 11 4.93 11 11v6c0 1.66-1.34 3-3 3zM64 91c-7.17 0-13-5.83-13-13s5.83-13 13-13 13 5.83 13 13-5.83 13-13 13zm0-20c-3.86 0-7 3.14-7 7s3.14 7 7 7 7-3.14 7-7-3.14-7-7-7zM124 117c-1.66 0-3-1.34-3-3v-6c0-2.76-2.24-5-5-5h-16c-2.76 0-5 2.24-5 5v6c0 1.66-1.34 3-3 3s-3-1.34-3-3v-6c0-6.07 4.93-11 11-11h16c6.07 0 11 4.93 11 11v6c0 1.66-1.34 3-3 3zM108 91c-7.17 0-13-5.83-13-13s5.83-13 13-13 13 5.83 13 13-5.83 13-13 13zm0-20c-3.86 0-7 3.14-7 7s3.14 7 7 7 7-3.14 7-7-3.14-7-7-7zM42 59c-7.17 0-13-5.83-13-13s5.83-13 13-13 13 5.83 13 13-5.83 13-13 13zm0-20c-3.86 0-7 3.14-7 7s3.14 7 7 7 7-3.14 7-7-3.14-7-7-7zM86 59c-7.17 0-13-5.83-13-13s5.83-13 13-13 13 5.83 13 13-5.83 13-13 13zm0-20c-3.86 0-7 3.14-7 7s3.14 7 7 7 7-3.14 7-7-3.14-7-7-7zM64 27c-7.17 0-13-5.83-13-13S56.83 1 64 1s13 5.83 13 13-5.83 13-13 13zm0-20c-3.86 0-7 3.14-7 7s3.14 7 7 7 7-3.14 7-7-3.14-7-7-7z"></path></symbol><symbol viewBox="0 0 512 512" id="icon-instagram"><path d="M505 257c0 34.8-.7 69.7.2 104.5 1.5 61.6-37.2 109.2-86.5 130.4-19.8 8.5-40.6 13-62.1 13-67.3.1-134.7 1-202-.3-50.7-1-92.4-22.2-122.3-64-15.7-22-23.2-47-23.2-74.1v-215c0-58.5 28.5-99.4 79.1-126C110.2 14 134.1 9.1 159 9c65.3 0 130.7-.4 196 .2 50.7.4 93 19.8 124.2 60.6 17.4 22.8 25.8 49 25.8 77.8V257zm-459 0v110c0 16.4 3.8 31.8 12.3 45.7 22.3 36.5 56 54.3 97.8 55 67.1 1 134.3.4 201.5.2 16.5 0 32.5-3.4 47.4-10.5 40.6-19.4 63.3-50.3 63.1-96.7-.4-71-.1-142-.1-213 0-20.1-5.7-38.5-17.6-54.7-23-31.1-54.8-46.4-92.8-46.8-67-.8-134-.3-201-.2-14.3 0-28.1 2.9-41.5 7.9-36.8 13.7-71 48.4-69.4 99.5 1.2 34.6.3 69.1.3 103.6z"></path><path d="M257.6 363c-64.5 0-116.5-51.4-116.6-115.4-.1-63 52.3-114.6 116.4-114.6 64.3-.1 116.5 51.4 116.6 114.9 0 63.4-52.1 115-116.4 115.1zm0-37c43.9 0 79.5-35.1 79.4-78.3-.1-42.8-35.7-77.8-79.4-77.8-43.9 0-79.7 34.9-79.7 78 .1 43.2 35.8 78.2 79.7 78.1zM387.5 98c13.5 0 24.5 11.5 24.5 25.6-.1 14.1-11.2 25.5-24.7 25.4-13.3-.1-24.2-11.5-24.2-25.3C363 109.6 374 98 387.5 98z"></path></symbol><symbol viewBox="0 0 512 512" id="icon-notification"><g fill="none" stroke="#000" stroke-linecap="round" stroke-linejoin="round" stroke-miterlimit="10" stroke-width="8"><path d="M112.933 352.679c-26.474-33.325-42.284-75.503-42.284-121.375C70.648 123.44 158.088 36 265.95 36s195.297 87.44 195.297 195.303c0 107.857-87.435 195.303-195.297 195.303-25.656 0-50.157-4.952-72.597-13.943"></path><path d="M156.612 242.988a18.723 18.723 0 0 1-4.07-11.685c0-10.384 8.417-18.802 18.801-18.802s18.801 8.418 18.801 18.802-8.417 18.802-18.801 18.802a18.76 18.76 0 0 1-6.989-1.342M247.944 242.988a18.718 18.718 0 0 1-4.071-11.685c0-10.384 8.418-18.802 18.802-18.802 10.383 0 18.801 8.418 18.801 18.802s-8.418 18.802-18.801 18.802a18.76 18.76 0 0 1-6.989-1.342M339.274 242.988a18.717 18.717 0 0 1-4.07-11.685c0-10.384 8.417-18.802 18.8-18.802 10.385 0 18.803 8.418 18.803 18.802s-8.418 18.802-18.803 18.802c-2.469 0-4.828-.477-6.988-1.342M109.33 366.413L50.751 480M182.928 421.324L50.751 480"></path></g></symbol><symbol viewBox="0 0 477.156 477.156" id="icon-phone"><path d="M475.009 380.316l-2.375-7.156c-5.625-16.719-24.062-34.156-41-38.75l-62.688-17.125c-17-4.625-41.25 1.594-53.688 14.031l-22.688 22.688c-82.453-22.28-147.109-86.938-169.359-169.375L145.9 161.94c12.438-12.438 18.656-36.656 14.031-53.656l-17.094-62.719c-4.625-16.969-22.094-35.406-38.781-40.969L96.9 2.19c-16.719-5.563-40.563.063-53 12.5L9.962 48.659C3.899 54.69.024 71.94.024 72.003c-1.187 107.75 41.063 211.562 117.281 287.781 76.031 76.031 179.454 118.219 286.891 117.313.562 0 18.312-3.813 24.375-9.845l33.938-33.938c12.437-12.436 18.062-36.279 12.5-52.998z"></path></symbol><symbol viewBox="0 0 24 24" id="icon-play"><g data-name="17. Play"><path d="M12 0a12 12 0 1 0 12 12A12.013 12.013 0 0 0 12 0zm0 22a10 10 0 1 1 10-10 10.011 10.011 0 0 1-10 10z"></path><path d="M16.173 10.3L11.06 7.1A2 2 0 0 0 8 8.8v6.4a2 2 0 0 0 3.06 1.7l5.113-3.2a2 2 0 0 0 0-3.392zM10 15.2V8.8l5.113 3.2z"></path></g></symbol><symbol viewBox="0 0 16 16" id="icon-shield"><path d="M5.338 1.59a61.44 61.44 0 0 0-2.837.856.481.481 0 0 0-.328.39c-.554 4.157.726 7.19 2.253 9.188a10.725 10.725 0 0 0 2.287 2.233c.346.244.652.42.893.533.12.057.218.095.293.118a.55.55 0 0 0 .101.025.615.615 0 0 0 .1-.025c.076-.023.174-.061.294-.118.24-.113.547-.29.893-.533a10.726 10.726 0 0 0 2.287-2.233c1.527-1.997 2.807-5.031 2.253-9.188a.48.48 0 0 0-.328-.39c-.651-.213-1.75-.56-2.837-.855C9.552 1.29 8.531 1.067 8 1.067c-.53 0-1.552.223-2.662.524zM5.072.56C6.157.265 7.31 0 8 0s1.843.265 2.928.56c1.11.3 2.229.655 2.887.87a1.54 1.54 0 0 1 1.044 1.262c.596 4.477-.787 7.795-2.465 9.99a11.775 11.775 0 0 1-2.517 2.453 7.159 7.159 0 0 1-1.048.625c-.28.132-.581.24-.829.24s-.548-.108-.829-.24a7.158 7.158 0 0 1-1.048-.625 11.777 11.777 0 0 1-2.517-2.453C1.928 10.487.545 7.169 1.141 2.692A1.54 1.54 0 0 1 2.185 1.43 62.456 62.456 0 0 1 5.072.56z"></path><path d="M10.854 5.146a.5.5 0 0 1 0 .708l-3 3a.5.5 0 0 1-.708 0l-1.5-1.5a.5.5 0 1 1 .708-.708L7.5 7.793l2.646-2.647a.5.5 0 0 1 .708 0z"></path></symbol><symbol viewBox="0 0 20 20" id="icon-telegram"><path d="M10 18c4.42 0 8-3.58 8-8s-3.58-8-8-8-8 3.58-8 8 3.58 8 8 8zm0 2C4.48 20 0 15.52 0 10S4.48 0 10 0s10 4.48 10 10-4.48 10-10 10zm-3.11-8.83l-2.5-.78c-.54-.16-.54-.54.12-.8l9.73-3.76c.57-.23.89.06.7.79l-1.66 7.82c-.12.56-.45.69-.92.43l-2.55-1.89-1.19 1.15c-.12.12-.22.22-.41.24-.19.03-.34-.03-.45-.34l-.86-2.87-.01.01z"></path></symbol><symbol viewBox="0 0 576 512" id="icon-vk"><path d="M545 117.7c3.7-12.5 0-21.7-17.8-21.7h-58.9c-15 0-21.9 7.9-25.6 16.7 0 0-30 73.1-72.4 120.5-13.7 13.7-20 18.1-27.5 18.1-3.7 0-9.4-4.4-9.4-16.9V117.7c0-15-4.2-21.7-16.6-21.7h-92.6c-9.4 0-15 7-15 13.5 0 14.2 21.2 17.5 23.4 57.5v86.8c0 19-3.4 22.5-10.9 22.5-20 0-68.6-73.4-97.4-157.4-5.8-16.3-11.5-22.9-26.6-22.9H38.8c-16.8 0-20.2 7.9-20.2 16.7 0 15.6 20 93.1 93.1 195.5C160.4 378.1 229 416 291.4 416c37.5 0 42.1-8.4 42.1-22.9 0-66.8-3.4-73.1 15.4-73.1 8.7 0 23.7 4.4 58.7 38.1 40 40 46.6 57.9 69 57.9h58.9c16.8 0 25.3-8.4 20.4-25-11.2-34.9-86.9-106.7-90.3-111.5-8.7-11.2-6.2-16.2 0-26.2.1-.1 72-101.3 79.4-135.6z"></path></symbol><symbol viewBox="0 0 495.96 499.75" id="icon-whatsapp"><path d="M0 499.75c6.9-20.7 13.4-40.1 19.9-59.5 6.5-19.2 12.3-38.7 19.7-57.6 3.8-9.6 2.6-16.8-2.2-25.8-26.2-48.6-34-100.7-24.9-154.9 7.7-45.9 27.2-86.5 58.7-121 51.9-56.7 116.7-83.9 193.3-80.7 56.1 2.3 105.7 22.8 148 59.9 39.4 34.5 65.1 77.4 77 128.4 9.6 41.1 8.5 82-3.3 122.5-15 51.3-43.7 93.6-86.4 125.8-59.3 44.8-125.8 58.7-198.3 44.6-21.8-4.2-42.6-12-62.2-22.6-3.2-1.7-5.9-2.1-9.4-.9-37.2 12-74.5 23.9-111.7 35.8-5.6 1.8-11.3 3.7-18.2 6zm63.3-62.7c2-.5 2.9-.7 3.8-1 23.3-7.4 46.6-14.9 70-22.1 2.2-.7 5.2-.1 7.3.9 10.1 5 19.8 11 30.2 15.4 42.8 18.1 86.9 21 131.5 8.6 53.2-14.9 94-46.6 121.9-94.5 23.9-41 32.1-85.3 24.7-131.9-9.4-59.3-39.8-105.9-90.1-139-43.6-28.6-91.6-38.3-142.8-30.2-44.1 7-81.8 27.1-112.9 59.3-26.7 27.6-44.6 60.2-52.4 97.7-11.1 53.7-2.9 104.5 26.9 150.8 6 9.3 5.8 16.4 2.2 25.9-7.3 19.5-13.4 39.4-20.3 60.1z"></path><path d="M378.5 313.65c-.3 19.3-9.4 34-27.8 43.2-18.1 9-36.5 11.3-55.4 3.9-17-6.7-34.2-13.2-50.6-21.3-21.6-10.7-39.3-26.7-55.5-44.4-17.9-19.6-33.1-41.4-45.6-64.7-8.9-16.5-14.3-34-12.4-53.2 2-20.4 11.5-36.7 27.5-49 3.2-2.4 8-3.5 12.1-3.9 5.3-.4 10.6.4 15.9.8 4.4.4 6.8 3.5 8.3 7.1 3.9 9.6 7.4 19.2 11.1 28.9 2.5 6.5 4.4 13.3 7.4 19.6 3.7 7.8 1.4 14.3-3.4 20.3-4.1 5.1-8.4 10-13.1 14.4-3.9 3.7-4.6 7.5-2 12 11.5 20.5 25.5 38.9 44 53.8 12.2 9.8 25.7 17.1 39.7 23.9 4.1 2 8.1 1.7 11.3-2 6.9-7.9 13.9-15.7 20.7-23.7 4.4-5.1 6.6-6.1 12.5-3.1 17.1 8.6 34 17.5 51 26.4 4 2.2 5 5.8 4.3 11z"></path></symbol><symbol viewBox="0 0 54 64" id="icon-youtube"><path d="M32.56 41.47c-.54 0-1.09.26-1.63.79v11c.55.54 1.09.81 1.63.81.94 0 1.42-.81 1.42-2.43v-7.7c0-1.64-.48-2.47-1.42-2.47zM44.52 41.47c-1.09 0-1.64.83-1.64 2.5v1.67h3.27v-1.67c0-1.67-.54-2.5-1.63-2.5z"></path><path d="M51.32 29.08c-2.06-2.14-4.36-2.15-5.41-2.27-7.56-.54-18.89-.54-18.89-.54h-.03s-11.33 0-18.9.54c-1.05.12-3.35.13-5.41 2.27C1.06 30.71.53 34.41.53 34.41S0 38.74 0 43.09v4.07c0 4.34.54 8.69.54 8.69s.53 3.69 2.15 5.32c2.06 2.14 4.75 2.07 5.95 2.3C12.96 63.88 27 64 27 64s11.35-.02 18.9-.56c1.06-.12 3.36-.13 5.41-2.27 1.62-1.63 2.15-5.32 2.15-5.32s.54-4.35.54-8.69v-4.07c0-4.34-.54-8.69-.54-8.69s-.52-3.69-2.14-5.32zM11.9 56.78H8.26v-20.8H4.41v-3.41h11.41v3.41H11.9v20.8zm12.91 0h-3.28v-1.97c-1.3 1.49-2.54 2.22-3.74 2.22-1.05 0-1.78-.43-2.11-1.35-.18-.55-.29-1.41-.29-2.68V38.74h3.28v13.28c0 .76 0 1.16.02 1.27.08.51.34.77.77.77.66 0 1.34-.51 2.07-1.53V38.74h3.28v18.04zm12.44-5.41c0 1.66-.11 2.87-.33 3.63-.44 1.34-1.31 2.03-2.61 2.03-1.17 0-2.29-.65-3.39-2v1.75h-3.28V32.57h3.28v7.9c1.06-1.3 2.18-1.96 3.39-1.96 1.3 0 2.17.69 2.61 2.04.22.73.33 1.92.33 3.63v7.19zm12.18-3.01h-6.55v3.2c0 1.67.55 2.51 1.67 2.51.81 0 1.28-.44 1.46-1.31.03-.18.07-.91.07-2.22h3.34v.48c0 1.05-.04 1.78-.07 2.11-.11.72-.37 1.38-.77 1.96-.91 1.31-2.25 1.96-3.96 1.96s-3.01-.62-3.96-1.85c-.7-.9-1.05-2.33-1.05-4.24v-6.32c0-1.93.32-3.33 1.01-4.25.95-1.23 2.25-1.85 3.92-1.85 1.64 0 2.95.61 3.86 1.85.69.92 1.01 2.32 1.01 4.25l.02 3.72zM18.36 24.46v-9.91L22.77 0h-3.71l-2.5 9.6L13.95 0h-3.86c.78 2.27 1.58 4.54 2.36 6.82 1.17 3.41 1.91 5.98 2.24 7.73v9.91h3.67zM26.97 24.71c1.66 0 2.94-.62 3.86-1.86.69-.91 1.03-2.35 1.03-4.29v-6.39c0-1.94-.34-3.37-1.03-4.29-.92-1.25-2.2-1.87-3.86-1.87-1.65 0-2.94.62-3.85 1.87-.71.92-1.03 2.34-1.03 4.29v6.39c0 1.94.33 3.38 1.03 4.29.9 1.24 2.19 1.86 3.85 1.86zm-1.58-13.2c0-1.69.51-2.53 1.58-2.53 1.06 0 1.57.84 1.57 2.53v7.67c0 1.69-.51 2.53-1.57 2.53-1.07 0-1.58-.84-1.58-2.53v-7.67zM43.91 24.46V6.23H40.6v13.94c-.73 1.03-1.43 1.55-2.09 1.55-.44 0-.71-.26-.78-.77-.04-.11-.04-.51-.04-1.28V6.23h-3.3v14.42c0 1.29.11 2.16.29 2.71.33.92 1.07 1.35 2.13 1.35 1.2 0 2.46-.73 3.78-2.24v1.99h3.32z"></path></symbol><symbol viewBox="0 0 32 32" id="icon-zoom"><circle cx="14" cy="14" fill="none" r="9" stroke="#0b6fd1" stroke-linecap="round" stroke-linejoin="round" stroke-miterlimit="10" stroke-width="2"></circle><path fill="none" stroke="#0b6fd1" stroke-linecap="round" stroke-linejoin="round" stroke-miterlimit="10" stroke-width="2" d="M27 27l-6.634-6.634M14 10v8M10 14h8"></path></symbol><symbol viewBox="0 0 64 64" id="icon-zoom2"><g data-name="Layer 11"><path d="M27.15 54.15a27 27 0 1 1 27-27 27 27 0 0 1-27 27zm0-52a25 25 0 1 0 25 25 25 25 0 0 0-25-25z"></path><path d="M45.44 46.858l1.414-1.415 17 17-1.415 1.414zM13.15 26.15h28v2h-28z"></path><path d="M26.15 13.15h2v28h-2z"></path></g></symbol></svg>