<svg xmlns="http://www.w3.org/2000/svg" viewBox="0 0 54 64"><path d="M32.56 41.47c-.54 0-1.09.26-1.63.79v11c.55.54 1.09.81 1.63.81.94 0 1.42-.81 1.42-2.43v-7.7c0-1.64-.48-2.47-1.42-2.47zm11.96 0c-1.09 0-1.64.83-1.64 2.5v1.67h3.27v-1.67c0-1.67-.54-2.5-1.63-2.5z"/><path d="M51.32 29.08c-2.06-2.14-4.36-2.15-5.41-2.27-7.56-.54-18.89-.54-18.89-.54h-.03s-11.33 0-18.9.54c-1.05.12-3.35.13-5.41 2.27C1.06 30.71.53 34.41.53 34.41S0 38.74 0 43.09v4.07c0 4.34.54 8.69.54 8.69s.53 3.69 2.15 5.32c2.06 2.14 4.75 2.07 5.95 2.3C12.96 63.88 27 64 27 64s11.35-.02 18.9-.56c1.06-.12 3.36-.13 5.41-2.27 1.62-1.63 2.15-5.32 2.15-5.32s.54-4.35.54-8.69v-4.07c0-4.34-.54-8.69-.54-8.69s-.52-3.69-2.14-5.32zM11.9 56.78H8.26v-20.8H4.41v-3.41h11.41v3.41H11.9v20.8zm12.91 0h-3.28v-1.97c-1.3 1.49-2.54 2.22-3.74 2.22-1.05 0-1.78-.43-2.11-1.35-.18-.55-.29-1.41-.29-2.68V38.74h3.28v13.28c0 .76 0 1.16.02 1.27.08.51.34.77.77.77.66 0 1.34-.51 2.07-1.53V38.74h3.28v18.04zm12.44-5.41c0 1.66-.11 2.87-.33 3.63-.44 1.34-1.31 2.03-2.61 2.03-1.17 0-2.29-.65-3.39-2v1.75h-3.28V32.57h3.28v7.9c1.06-1.3 2.18-1.96 3.39-1.96 1.3 0 2.17.69 2.61 2.04.22.73.33 1.92.33 3.63v7.19zm12.18-3.01h-6.55v3.2c0 1.67.55 2.51 1.67 2.51.81 0 1.28-.44 1.46-1.31.03-.18.07-.91.07-2.22h3.34v.48c0 1.05-.04 1.78-.07 2.11-.11.72-.37 1.38-.77 1.96-.91 1.31-2.25 1.96-3.96 1.96s-3.01-.62-3.96-1.85c-.7-.9-1.05-2.33-1.05-4.24v-6.32c0-1.93.32-3.33 1.01-4.25.95-1.23 2.25-1.85 3.92-1.85 1.64 0 2.95.61 3.86 1.85.69.92 1.01 2.32 1.01 4.25l.02 3.72zm-31.07-23.9v-9.91L22.77 0h-3.71l-2.5 9.6L13.95 0h-3.86c.78 2.27 1.58 4.54 2.36 6.82 1.17 3.41 1.91 5.98 2.24 7.73v9.91h3.67zm8.61.25c1.66 0 2.94-.62 3.86-1.86.69-.91 1.03-2.35 1.03-4.29v-6.39c0-1.94-.34-3.37-1.03-4.29-.92-1.25-2.2-1.87-3.86-1.87-1.65 0-2.94.62-3.85 1.87-.71.92-1.03 2.34-1.03 4.29v6.39c0 1.94.33 3.38 1.03 4.29.9 1.24 2.19 1.86 3.85 1.86zm-1.58-13.2c0-1.69.51-2.53 1.58-2.53 1.06 0 1.57.84 1.57 2.53v7.67c0 1.69-.51 2.53-1.57 2.53-1.07 0-1.58-.84-1.58-2.53v-7.67zm18.52 12.95V6.23H40.6v13.94c-.73 1.03-1.43 1.55-2.09 1.55-.44 0-.71-.26-.78-.77-.04-.11-.04-.51-.04-1.28V6.23h-3.3v14.42c0 1.29.11 2.16.29 2.71.33.92 1.07 1.35 2.13 1.35 1.2 0 2.46-.73 3.78-2.24v1.99h3.32z"/></svg>