<?xml version="1.0" ?><svg fill="none" height="24" viewBox="0 0 24 24" width="24" xmlns="http://www.w3.org/2000/svg"><path clip-rule="evenodd" d="M12 3.5C7.8637 3.5 4.5 6.89676 4.5 11.1C4.5 13.5557 6.347 15.9014 8.33482 17.6937C9.31304 18.5757 10.2935 19.2954 11.0305 19.7949C11.3985 20.0443 11.7046 20.238 11.9178 20.3689C11.947 20.3868 11.9744 20.4035 12 20.419C12.0256 20.4035 12.053 20.3868 12.0822 20.3689C12.2954 20.238 12.6015 20.0443 12.9695 19.7949C13.7065 19.2954 14.687 18.5757 15.6652 17.6937C17.653 15.9014 19.5 13.5557 19.5 11.1C19.5 6.89676 16.1363 3.5 12 3.5ZM12 21C11.7538 21.4352 11.7536 21.4351 11.7535 21.435L11.7514 21.4338L11.7462 21.4309L11.7273 21.42C11.7109 21.4106 11.6872 21.3968 11.6567 21.3788C11.5955 21.3429 11.5069 21.29 11.3947 21.2211C11.1704 21.0834 10.8515 20.8816 10.4695 20.6227C9.70647 20.1055 8.68696 19.3577 7.66518 18.4364C5.653 16.6221 3.5 14.0178 3.5 11.1C3.5 6.35623 7.29974 2.5 12 2.5C16.7003 2.5 20.5 6.35623 20.5 11.1C20.5 14.0178 18.347 16.6221 16.3348 18.4364C15.313 19.3577 14.2935 20.1055 13.5305 20.6227C13.1485 20.8816 12.8296 21.0834 12.6053 21.2211C12.4931 21.29 12.4045 21.3429 12.3433 21.3788C12.3128 21.3968 12.2891 21.4106 12.2727 21.42L12.2538 21.4309L12.2486 21.4338L12.247 21.4347C12.2469 21.4348 12.2462 21.4352 12 21ZM12 21L12.247 21.4347C12.0943 21.5212 11.9062 21.5214 11.7535 21.435L12 21Z" fill="black" fill-rule="evenodd"/><path clip-rule="evenodd" d="M12 7C10.8954 7 10 7.89543 10 9C10 10.1046 10.8954 11 12 11C13.1046 11 14 10.1046 14 9C14 7.89543 13.1046 7 12 7ZM9 9C9 7.34315 10.3431 6 12 6C13.6569 6 15 7.34315 15 9C15 10.6569 13.6569 12 12 12C10.3431 12 9 10.6569 9 9Z" fill="black" fill-rule="evenodd"/><path clip-rule="evenodd" d="M12 14.5C10.0032 14.5 8.25445 15.5638 7.29022 17.1579L6.43457 16.6403C7.57239 14.7592 9.63891 13.5 12 13.5C14.3611 13.5 16.4276 14.7592 17.5655 16.6403L16.7098 17.1579C15.7456 15.5638 13.9968 14.5 12 14.5Z" fill="black" fill-rule="evenodd"/></svg>