<?xml version="1.0" encoding="utf-8"?>
<!-- Generator: Adobe Illustrator 25.4.1, SVG Export Plug-In . SVG Version: 6.00 Build 0)  -->
<svg version="1.1" id="Слой_1" xmlns="http://www.w3.org/2000/svg" xmlns:xlink="http://www.w3.org/1999/xlink" x="0px" y="0px"
	 viewBox="0 0 17 19" style="enable-background:new 0 0 17 19;" xml:space="preserve">
<style type="text/css">
	.st0{fill-rule:evenodd;clip-rule:evenodd;}
</style>
<g>
	<path class="st0" d="M8.25,18.93c0.15,0.09,0.34,0.09,0.49,0c0,0,0,0-0.25-0.43C8.25,18.94,8.25,18.94,8.25,18.93z"/>
	<path class="st0" d="M8.5,0C3.8,0,0,3.86,0,8.6c0,2.92,2.15,5.52,4.17,7.34c1.02,0.92,2.04,1.67,2.8,2.19
		c0.38,0.26,0.7,0.46,0.93,0.6c0.11,0.07,0.2,0.12,0.26,0.16c0.03,0.02,0.05,0.03,0.07,0.04l0.02,0.01l0.01,0l0,0L8.5,18.5
		l0.25,0.43l0,0l0.01,0l0.02-0.01c0.02-0.01,0.04-0.02,0.07-0.04c0.06-0.04,0.15-0.09,0.26-0.16c0.22-0.14,0.54-0.34,0.93-0.6
		c0.76-0.52,1.78-1.26,2.8-2.19C14.85,14.12,17,11.52,17,8.6C17,3.86,13.2,0,8.5,0z M8.5,1C12.64,1,16,4.4,16,8.6
		c0,1.79-0.99,3.52-2.29,5.03C12.52,12.04,10.64,11,8.5,11s-4.02,1.04-5.21,2.63C1.99,12.12,1,10.39,1,8.6C1,4.4,4.36,1,8.5,1z
		 M12.17,15.19c-0.98,0.88-1.96,1.6-2.7,2.1c-0.37,0.25-0.67,0.44-0.89,0.57c-0.03,0.02-0.06,0.03-0.08,0.05
		c-0.03-0.02-0.05-0.03-0.08-0.05c-0.21-0.13-0.52-0.32-0.89-0.57c-0.74-0.5-1.72-1.22-2.7-2.1c-0.29-0.26-0.57-0.54-0.85-0.82
		C4.98,12.94,6.63,12,8.5,12s3.52,0.94,4.51,2.38C12.74,14.66,12.45,14.93,12.17,15.19z"/>
	<path class="st0" d="M8.5,9.5c1.66,0,3-1.34,3-3c0-1.66-1.34-3-3-3s-3,1.34-3,3C5.5,8.16,6.84,9.5,8.5,9.5z M8.5,4.5
		c1.1,0,2,0.9,2,2c0,1.1-0.9,2-2,2s-2-0.9-2-2C6.5,5.4,7.4,4.5,8.5,4.5z"/>
</g>
</svg>
