<?xml version="1.0" encoding="utf-8"?>
<!-- Generator: Adobe Illustrator 25.4.1, SVG Export Plug-In . SVG Version: 6.00 Build 0)  -->
<svg version="1.1" id="Capa_1" xmlns="http://www.w3.org/2000/svg" xmlns:xlink="http://www.w3.org/1999/xlink" x="0px" y="0px"
	 viewBox="0 0 450.14 342.74" style="enable-background:new 0 0 450.14 342.74;" xml:space="preserve">
<g>
	<path d="M284.2,0c11.3,4,18.4,13.2,26.5,21.2c43.5,43.4,86.9,86.9,130.4,130.3c8.1,8.1,11,17.3,7.7,28.3c-1.3,4.4-3.9,8-7.1,11.2
		c-47.6,47.6-95.1,95.1-142.7,142.6c-8.1,8.1-17.6,11.5-28.7,7.4c-10-3.7-16.4-11.1-18-21.8c-1.5-9.3,2.8-16.6,9.1-22.9
		c21.8-21.8,43.7-43.7,65.5-65.5c18.9-18.9,37.8-37.9,56.8-56.7c2-2,1.8-2.9-0.1-4.8c-40.6-40.5-81.1-81-121.7-121.5
		c-3.5-3.5-6.7-7.1-8.4-11.8c-4.3-11.8,0.9-24.8,12.2-31.5c2.9-1.7,6.2-2.2,8.9-4.2C278,0,281.1,0,284.2,0z"/>
</g>
<g>
	<path d="M32.2,0c11.3,4,18.4,13.2,26.5,21.2c43.5,43.4,86.9,86.9,130.4,130.3c8.1,8.1,11,17.3,7.7,28.3c-1.3,4.4-3.9,8-7.1,11.2
		C142.1,238.6,94.6,286.1,47,333.6c-8.1,8.1-17.6,11.5-28.7,7.4c-10-3.7-16.4-11.1-18-21.8c-1.5-9.3,2.8-16.6,9.1-22.9
		c21.8-21.8,43.7-43.7,65.5-65.5c18.9-18.9,37.8-37.9,56.8-56.7c2-2,1.8-2.9-0.1-4.8C91,128.8,50.5,88.3,9.9,47.8
		C6.4,44.3,3.2,40.7,1.5,36C-2.8,24.2,2.4,11.2,13.7,4.5c2.9-1.7,6.2-2.2,8.9-4.2C25.9,0,29.1,0,32.2,0z"/>
</g>
</svg>
