<?xml version="1.0" encoding="utf-8"?>
<!-- Generator: Adobe Illustrator 25.4.1, SVG Export Plug-In . SVG Version: 6.00 Build 0)  -->
<svg version="1.1" id="Слой_1" xmlns="http://www.w3.org/2000/svg" xmlns:xlink="http://www.w3.org/1999/xlink" x="0px" y="0px"
	 viewBox="0 0 32 22" style="enable-background:new 0 0 32 22;" xml:space="preserve">
<path d="M31,0H1C0.45,0,0,0.45,0,1v20c0,0.55,0.45,1,1,1h30c0.55,0,1-0.45,1-1V1C32,0.45,31.55,0,31,0z M16,10.76L4.05,2h23.89
	L16,10.76z M11.01,9.58L2,18.59V2.97L11.01,9.58z M12.64,10.78l2.77,2.03C15.58,12.94,15.79,13,16,13s0.42-0.06,0.59-0.19l2.77-2.03
	L28.59,20H3.41L12.64,10.78z M20.99,9.58L30,2.97v15.61L20.99,9.58z"/>
</svg>
