<?xml version="1.0" encoding="utf-8"?>
<!-- Generator: Adobe Illustrator 25.4.1, SVG Export Plug-In . SVG Version: 6.00 Build 0)  -->
<svg version="1.1" id="Слой_1" xmlns="http://www.w3.org/2000/svg" xmlns:xlink="http://www.w3.org/1999/xlink" x="0px" y="0px"
	 viewBox="0 0 12.5 16.59" style="enable-background:new 0 0 12.5 16.59;" xml:space="preserve">
<g>
	<path d="M6.25,0C2.8,0,0,2.8,0,6.25c0,4.36,5.83,9.95,6.08,10.18l0.17,0.16l0.17-0.16c0.25-0.24,6.08-5.82,6.08-10.18
		C12.5,2.8,9.7,0,6.25,0z M6.25,1.5C8.91,1.5,11,3.59,11,6.25c0,0.81-0.27,1.77-0.77,2.78c-0.55,1.01-1.24,2.11-1.98,3.17
		c-0.4,0.53-0.84,1.01-1.3,1.53c-0.23,0.25-0.45,0.5-0.67,0.75L6.25,14.5c-0.72-0.75-1.37-1.59-2.01-2.4
		c-0.93-1.17-1.54-2.11-1.97-3.06C1.77,8.03,1.5,7.06,1.5,6.25C1.5,3.59,3.59,1.5,6.25,1.5z"/>
	<path d="M6.25,9.5C8.1,9.5,9.5,8.1,9.5,6.25S8.1,3,6.25,3C4.4,3,3,4.4,3,6.25S4.4,9.5,6.25,9.5z M6.25,4.5C7.21,4.5,8,5.29,8,6.25
		S7.21,8,6.25,8S4.5,7.21,4.5,6.25S5.29,4.5,6.25,4.5z"/>
</g>
</svg>
