<?xml version="1.0" encoding="utf-8"?>
<!-- Generator: Adobe Illustrator 25.4.1, SVG Export Plug-In . SVG Version: 6.00 Build 0)  -->
<svg version="1.1" id="Слой_1" xmlns="http://www.w3.org/2000/svg" xmlns:xlink="http://www.w3.org/1999/xlink" x="0px" y="0px"
	 viewBox="0 0 20 20" style="enable-background:new 0 0 20 20;" xml:space="preserve">
<path d="M10,18c4.42,0,8-3.58,8-8s-3.58-8-8-8s-8,3.58-8,8S5.58,18,10,18z M10,20C4.48,20,0,15.52,0,10S4.48,0,10,0s10,4.48,10,10
	S15.52,20,10,20z M6.89,11.17l-2.5-0.78c-0.54-0.16-0.54-0.54,0.12-0.8l9.73-3.76c0.57-0.23,0.89,0.06,0.7,0.79l-1.66,7.82
	c-0.12,0.56-0.45,0.69-0.92,0.43l-2.55-1.89l-1.19,1.15c-0.12,0.12-0.22,0.22-0.41,0.24c-0.19,0.03-0.34-0.03-0.45-0.34L6.9,11.16
	L6.89,11.17L6.89,11.17z"/>
</svg>
