<?xml version="1.0" encoding="utf-8"?>
<!-- Generator: Adobe Illustrator 25.4.1, SVG Export Plug-In . SVG Version: 6.00 Build 0)  -->
<svg version="1.1" id="Layer_1" xmlns="http://www.w3.org/2000/svg" xmlns:xlink="http://www.w3.org/1999/xlink" x="0px" y="0px"
	 viewBox="0 0 495.96 499.75" style="enable-background:new 0 0 495.96 499.75;" xml:space="preserve">
<g>
	<path d="M0,499.75c6.9-20.7,13.4-40.1,19.9-59.5c6.5-19.2,12.3-38.7,19.7-57.6c3.8-9.6,2.6-16.8-2.2-25.8
		c-26.2-48.6-34-100.7-24.9-154.9c7.7-45.9,27.2-86.5,58.7-121c51.9-56.7,116.7-83.9,193.3-80.7c56.1,2.3,105.7,22.8,148,59.9
		c39.4,34.5,65.1,77.4,77,128.4c9.6,41.1,8.5,82-3.3,122.5c-15,51.3-43.7,93.6-86.4,125.8c-59.3,44.8-125.8,58.7-198.3,44.6
		c-21.8-4.2-42.6-12-62.2-22.6c-3.2-1.7-5.9-2.1-9.4-0.9c-37.2,12-74.5,23.9-111.7,35.8C12.6,495.55,6.9,497.45,0,499.75z
		 M63.3,437.05c2-0.5,2.9-0.7,3.8-1c23.3-7.4,46.6-14.9,70-22.1c2.2-0.7,5.2-0.1,7.3,0.9c10.1,5,19.8,11,30.2,15.4
		c42.8,18.1,86.9,21,131.5,8.6c53.2-14.9,94-46.6,121.9-94.5c23.9-41,32.1-85.3,24.7-131.9c-9.4-59.3-39.8-105.9-90.1-139
		c-43.6-28.6-91.6-38.3-142.8-30.2c-44.1,7-81.8,27.1-112.9,59.3c-26.7,27.6-44.6,60.2-52.4,97.7c-11.1,53.7-2.9,104.5,26.9,150.8
		c6,9.3,5.8,16.4,2.2,25.9C76.3,396.45,70.2,416.35,63.3,437.05z"/>
	<path d="M378.5,313.65c-0.3,19.3-9.4,34-27.8,43.2c-18.1,9-36.5,11.3-55.4,3.9c-17-6.7-34.2-13.2-50.6-21.3
		c-21.6-10.7-39.3-26.7-55.5-44.4c-17.9-19.6-33.1-41.4-45.6-64.7c-8.9-16.5-14.3-34-12.4-53.2c2-20.4,11.5-36.7,27.5-49
		c3.2-2.4,8-3.5,12.1-3.9c5.3-0.4,10.6,0.4,15.9,0.8c4.4,0.4,6.8,3.5,8.3,7.1c3.9,9.6,7.4,19.2,11.1,28.9c2.5,6.5,4.4,13.3,7.4,19.6
		c3.7,7.8,1.4,14.3-3.4,20.3c-4.1,5.1-8.4,10-13.1,14.4c-3.9,3.7-4.6,7.5-2,12c11.5,20.5,25.5,38.9,44,53.8
		c12.2,9.8,25.7,17.1,39.7,23.9c4.1,2,8.1,1.7,11.3-2c6.9-7.9,13.9-15.7,20.7-23.7c4.4-5.1,6.6-6.1,12.5-3.1
		c17.1,8.6,34,17.5,51,26.4C378.2,304.85,379.2,308.45,378.5,313.65z"/>
</g>
</svg>
