<?xml version="1.0" encoding="utf-8"?>
<!-- Generator: Adobe Illustrator 25.4.1, SVG Export Plug-In . SVG Version: 6.00 Build 0)  -->
<svg version="1.1" id="Слой_1" xmlns="http://www.w3.org/2000/svg" xmlns:xlink="http://www.w3.org/1999/xlink" x="0px" y="0px"
	 viewBox="0 0 54 64" style="enable-background:new 0 0 54 64;" xml:space="preserve">
<g>
	<g>
		<g>
			<path d="M32.56,41.47c-0.54,0-1.09,0.26-1.63,0.79v11c0.55,0.54,1.09,0.81,1.63,0.81c0.94,0,1.42-0.81,1.42-2.43v-7.7
				C33.98,42.3,33.5,41.47,32.56,41.47z"/>
			<path d="M44.52,41.47c-1.09,0-1.64,0.83-1.64,2.5v1.67h3.27v-1.67C46.15,42.3,45.61,41.47,44.52,41.47z"/>
			<g>
				<path d="M51.32,29.08c-2.06-2.14-4.36-2.15-5.41-2.27c-7.56-0.54-18.89-0.54-18.89-0.54h-0.03c0,0-11.33,0-18.9,0.54
					c-1.05,0.12-3.35,0.13-5.41,2.27c-1.62,1.63-2.15,5.33-2.15,5.33S0,38.74,0,43.09v4.07c0,4.34,0.54,8.69,0.54,8.69
					s0.53,3.69,2.15,5.32c2.06,2.14,4.75,2.07,5.95,2.3C12.96,63.88,27,64,27,64s11.35-0.02,18.9-0.56
					c1.06-0.12,3.36-0.13,5.41-2.27c1.62-1.63,2.15-5.32,2.15-5.32S54,51.5,54,47.16v-4.07c0-4.34-0.54-8.69-0.54-8.69
					S52.94,30.71,51.32,29.08z M11.9,56.78H8.26v-20.8H4.41v-3.41h11.41v3.41H11.9L11.9,56.78L11.9,56.78z M24.81,56.78h-3.28v-1.97
					c-1.3,1.49-2.54,2.22-3.74,2.22c-1.05,0-1.78-0.43-2.11-1.35c-0.18-0.55-0.29-1.41-0.29-2.68V38.74h3.28v13.28
					c0,0.76,0,1.16,0.02,1.27c0.08,0.51,0.34,0.77,0.77,0.77c0.66,0,1.34-0.51,2.07-1.53V38.74h3.28L24.81,56.78L24.81,56.78z
					 M37.25,51.37c0,1.66-0.11,2.87-0.33,3.63c-0.44,1.34-1.31,2.03-2.61,2.03c-1.17,0-2.29-0.65-3.39-2v1.75h-3.28V32.57h3.28v7.9
					c1.06-1.3,2.18-1.96,3.39-1.96c1.3,0,2.17,0.69,2.61,2.04c0.22,0.73,0.33,1.92,0.33,3.63C37.25,44.19,37.25,51.37,37.25,51.37z
					 M49.43,48.36h-6.55v3.2c0,1.67,0.55,2.51,1.67,2.51c0.81,0,1.28-0.44,1.46-1.31c0.03-0.18,0.07-0.91,0.07-2.22h3.34v0.48
					c0,1.05-0.04,1.78-0.07,2.11c-0.11,0.72-0.37,1.38-0.77,1.96c-0.91,1.31-2.25,1.96-3.96,1.96c-1.71,0-3.01-0.62-3.96-1.85
					c-0.7-0.9-1.05-2.33-1.05-4.24v-6.32c0-1.93,0.32-3.33,1.01-4.25c0.95-1.23,2.25-1.85,3.92-1.85c1.64,0,2.95,0.61,3.86,1.85
					c0.69,0.92,1.01,2.32,1.01,4.25L49.43,48.36L49.43,48.36z"/>
				<path d="M18.36,24.46v-9.91L22.77,0h-3.71l-2.5,9.6L13.95,0h-3.86c0.78,2.27,1.58,4.54,2.36,6.82c1.17,3.41,1.91,5.98,2.24,7.73
					v9.91L18.36,24.46L18.36,24.46z"/>
				<path d="M26.97,24.71c1.66,0,2.94-0.62,3.86-1.86c0.69-0.91,1.03-2.35,1.03-4.29v-6.39c0-1.94-0.34-3.37-1.03-4.29
					c-0.92-1.25-2.2-1.87-3.86-1.87c-1.65,0-2.94,0.62-3.85,1.87c-0.71,0.92-1.03,2.34-1.03,4.29v6.39c0,1.94,0.33,3.38,1.03,4.29
					C24.02,24.09,25.31,24.71,26.97,24.71z M25.39,11.51c0-1.69,0.51-2.53,1.58-2.53c1.06,0,1.57,0.84,1.57,2.53v7.67
					c0,1.69-0.51,2.53-1.57,2.53c-1.07,0-1.58-0.84-1.58-2.53C25.39,19.18,25.39,11.51,25.39,11.51z"/>
				<path d="M43.91,24.46V6.23H40.6v13.94c-0.73,1.03-1.43,1.55-2.09,1.55c-0.44,0-0.71-0.26-0.78-0.77
					c-0.04-0.11-0.04-0.51-0.04-1.28V6.23h-3.3v14.42c0,1.29,0.11,2.16,0.29,2.71c0.33,0.92,1.07,1.35,2.13,1.35
					c1.2,0,2.46-0.73,3.78-2.24v1.99C40.6,24.46,43.91,24.46,43.91,24.46z"/>
			</g>
		</g>
	</g>
</g>
</svg>
