<?xml version="1.0" encoding="utf-8"?>
<!-- Generator: Adobe Illustrator 25.4.1, SVG Export Plug-In . SVG Version: 6.00 Build 0)  -->
<svg version="1.1" id="Слой_1" xmlns="http://www.w3.org/2000/svg" xmlns:xlink="http://www.w3.org/1999/xlink" x="0px" y="0px"
	 viewBox="0 0 196.25 268.83" style="enable-background:new 0 0 196.25 268.83;" xml:space="preserve">
<style type="text/css">
	.st0{clip-path:url(#SVGID_00000145027622761623708720000014861273800330882442_);fill:#8BB3B7;}
	.st1{clip-path:url(#SVGID_00000180343141633118906470000012513427135224440228_);fill:#8BB3B7;}
	.st2{fill:#8BB3B7;}
	.st3{clip-path:url(#SVGID_00000029010261039969115300000016986973390660213923_);fill:#8BB3B7;}
</style>
<g>
	<g>
		<defs>
			<path id="SVGID_1_" d="M92.55,232.14h8.29v-1.94h-8.29V232.14z M54.12,212.53v1.99h7.39v28.25h2.2v-30.24H54.12z M70.4,212.53
				v1.99h7.39v28.25H80v-30.24H70.4z M186,212.53v1.99h7.39v28.25h2.2v-30.24H186z M4.47,213.39c-1.77,0.72-3.23,1.74-4.39,3.07
				l1.56,1.38c1.04-1.18,2.27-2.06,3.69-2.63c1.43-0.57,3.09-0.86,4.99-0.86c2.48,0,4.37,0.55,5.68,1.64
				c1.31,1.1,1.97,2.61,1.97,4.54c0,1.27-0.3,2.5-0.89,3.69c-0.59,1.2-1.72,2.63-3.39,4.3L0.9,241.21v1.55h20.78v-1.99H4.14
				l11.14-11.1c1.9-1.87,3.2-3.51,3.89-4.92c0.69-1.41,1.04-2.9,1.04-4.45c0-2.45-0.88-4.39-2.63-5.83
				c-1.76-1.44-4.12-2.16-7.08-2.16C8.24,212.31,6.24,212.67,4.47,213.39 M33.49,239.38c-1.46-1.05-2.58-2.58-3.39-4.58
				s-1.21-4.38-1.21-7.15c0-2.76,0.4-5.15,1.21-7.15s1.94-3.53,3.39-4.58s3.13-1.58,5.03-1.58c1.9,0,3.58,0.53,5.03,1.58
				s2.58,2.58,3.39,4.58s1.21,4.38,1.21,7.15c0,2.77-0.4,5.15-1.21,7.15c-0.81,2-1.94,3.53-3.39,4.58s-3.13,1.58-5.03,1.58
				C36.62,240.95,34.95,240.43,33.49,239.38 M32.37,214.19c-1.8,1.25-3.2,3.03-4.19,5.34s-1.49,5.01-1.49,8.12s0.5,5.82,1.49,8.12
				s2.39,4.08,4.19,5.33c1.8,1.25,3.85,1.88,6.16,1.88c2.3,0,4.36-0.63,6.16-1.88s3.2-3.03,4.19-5.33c0.99-2.3,1.49-5.01,1.49-8.12
				s-0.5-5.82-1.49-8.12c-0.99-2.3-2.39-4.08-4.19-5.34c-1.8-1.25-3.85-1.88-6.16-1.88C36.22,212.31,34.17,212.94,32.37,214.19
				 M110.99,213.39c-1.77,0.72-3.23,1.74-4.39,3.07l1.56,1.38c1.04-1.18,2.27-2.06,3.69-2.63c1.43-0.57,3.09-0.86,4.99-0.86
				c2.48,0,4.37,0.55,5.68,1.64c1.31,1.1,1.97,2.61,1.97,4.54c0,1.27-0.3,2.5-0.89,3.69c-0.59,1.2-1.72,2.63-3.39,4.3l-12.79,12.7
				v1.55h20.78v-1.99h-17.54l11.14-11.1c1.9-1.87,3.2-3.51,3.89-4.92s1.04-2.9,1.04-4.45c0-2.45-0.88-4.39-2.64-5.83
				s-4.12-2.16-7.08-2.16C114.77,212.31,112.76,212.67,110.99,213.39 M140.01,239.38c-1.46-1.05-2.59-2.58-3.39-4.58
				c-0.81-2-1.21-4.38-1.21-7.15c0-2.76,0.4-5.15,1.21-7.15c0.81-2,1.94-3.53,3.39-4.58s3.13-1.58,5.03-1.58s3.58,0.53,5.03,1.58
				s2.58,2.58,3.39,4.58s1.21,4.38,1.21,7.15c0,2.77-0.4,5.15-1.21,7.15c-0.81,2-1.94,3.53-3.39,4.58
				c-1.46,1.05-3.13,1.58-5.03,1.58C143.15,240.95,141.47,240.43,140.01,239.38 M138.89,214.19c-1.8,1.25-3.2,3.03-4.19,5.34
				c-0.99,2.3-1.49,5.01-1.49,8.12s0.5,5.82,1.49,8.12c0.99,2.3,2.39,4.08,4.19,5.33s3.85,1.88,6.16,1.88c2.3,0,4.35-0.63,6.15-1.88
				s3.2-3.03,4.19-5.33s1.49-5.01,1.49-8.12s-0.5-5.82-1.49-8.12c-0.99-2.3-2.39-4.08-4.19-5.34c-1.8-1.25-3.85-1.88-6.15-1.88
				C142.74,212.31,140.69,212.94,138.89,214.19 M165.59,213.39c-1.77,0.72-3.23,1.74-4.39,3.07l1.56,1.38
				c1.04-1.18,2.27-2.06,3.69-2.63c1.43-0.57,3.09-0.86,4.99-0.86c2.48,0,4.37,0.55,5.68,1.64c1.31,1.1,1.97,2.61,1.97,4.54
				c0,1.27-0.3,2.5-0.89,3.69c-0.59,1.2-1.72,2.63-3.39,4.3l-12.79,12.7v1.55h20.78v-1.99h-17.54l11.15-11.1
				c1.9-1.87,3.2-3.51,3.89-4.92s1.04-2.9,1.04-4.45c0-2.45-0.88-4.39-2.63-5.83c-1.76-1.44-4.12-2.16-7.08-2.16
				C169.37,212.31,167.36,212.67,165.59,213.39"/>
		</defs>
		<use xlink:href="#SVGID_1_"  style="overflow:visible;fill:#8BB3B7;"/>
		<clipPath id="SVGID_00000091701479743537127050000003098462680848545956_">
			<use xlink:href="#SVGID_1_"  style="overflow:visible;"/>
		</clipPath>
		
			<rect x="0.08" y="212.31" style="clip-path:url(#SVGID_00000091701479743537127050000003098462680848545956_);fill:#8BB3B7;" width="195.5" height="30.67"/>
	</g>
</g>
<g>
	<g>
		<defs>
			<path id="SVGID_00000065770910499069529720000002833801018715187853_" d="M74.29,10.44l-1.36,3.66
				c-0.57,1.54-1.79,2.76-3.33,3.33l-3.66,1.35c-0.21,0.08-0.31,0.26-0.31,0.45s0.1,0.37,0.31,0.45l3.59,1.33
				c1.59,0.59,2.85,1.84,3.43,3.43l1.33,3.59c0.15,0.41,0.74,0.41,0.89,0l1.29-3.5c0.61-1.65,1.91-2.95,3.56-3.56l3.5-1.29
				c0.21-0.08,0.31-0.26,0.31-0.45c0-0.18-0.1-0.37-0.31-0.45l-3.37-1.24c-1.73-0.64-3.1-2.01-3.74-3.74l-1.25-3.37
				c-0.08-0.21-0.26-0.31-0.45-0.31C74.55,10.13,74.36,10.24,74.29,10.44 M82.69,76.23l-1.84-4.97c-0.81-2.2-2.55-3.94-4.75-4.76
				l-4.97-1.84c-0.57-0.21-0.57-1.02,0-1.24l5.07-1.88c2.14-0.79,3.82-2.47,4.61-4.61l1.88-5.07c0.21-0.57,1.02-0.57,1.24,0
				l1.73,4.66c0.89,2.4,2.78,4.29,5.18,5.18l4.66,1.73c0.57,0.21,0.57,1.02,0,1.24l-4.84,1.79c-2.28,0.85-4.09,2.65-4.93,4.93
				l-1.79,4.84c-0.11,0.29-0.36,0.43-0.62,0.43C83.05,76.66,82.79,76.52,82.69,76.23 M70.04,51.01l-1.22-3.3
				c-0.54-1.46-1.7-2.62-3.16-3.16l-3.3-1.22c-0.38-0.14-0.38-0.68,0-0.82l3.37-1.25c1.42-0.52,2.54-1.65,3.07-3.07l1.25-3.37
				c0.14-0.38,0.68-0.38,0.82,0l1.15,3.1c0.59,1.6,1.85,2.85,3.44,3.44l3.1,1.15c0.38,0.14,0.38,0.68,0,0.82l-3.22,1.19
				c-1.52,0.56-2.72,1.76-3.28,3.28l-1.19,3.22c-0.07,0.19-0.24,0.29-0.41,0.29S70.11,51.2,70.04,51.01 M122.67,36.7l-0.98-2.64
				c-0.43-1.17-1.35-2.09-2.53-2.52l-2.64-0.98c-0.31-0.11-0.31-0.54,0-0.66l2.69-1c1.14-0.42,2.03-1.32,2.45-2.45l1-2.69
				c0.11-0.3,0.54-0.3,0.66,0l0.92,2.48c0.47,1.27,1.48,2.28,2.75,2.75l2.48,0.91c0.31,0.11,0.31,0.54,0,0.66l-2.57,0.95
				c-1.21,0.45-2.17,1.41-2.62,2.62l-0.95,2.57c-0.06,0.15-0.19,0.23-0.33,0.23S122.73,36.85,122.67,36.7 M97.33,51.08L95,44.79
				c-1.03-2.79-3.23-4.98-6.01-6.01l-6.29-2.33c-0.72-0.27-0.72-1.29,0-1.56l6.42-2.37c2.7-1,4.84-3.13,5.84-5.84l2.37-6.42
				c0.27-0.73,1.29-0.73,1.56,0l2.18,5.9c1.12,3.04,3.52,5.43,6.55,6.55l5.9,2.18c0.73,0.27,0.73,1.29,0,1.56l-6.12,2.27
				c-2.89,1.07-5.17,3.35-6.24,6.24l-2.27,6.12c-0.13,0.36-0.46,0.54-0.78,0.54S97.46,51.44,97.33,51.08 M85.8,16.33l1.03,0.38
				c2.35,0.87,2.35,4.19,0,5.06l-1.29,0.48c-3.61,1.34-6.46,4.19-7.8,7.8l-0.48,1.29c-0.87,2.35-4.19,2.35-5.06,0l-0.54-1.46
				c-1.3-3.5-4.06-6.26-7.56-7.56l-0.57-0.21c-2.3,0.19-4.61,0.25-6.92,0.11c0,0-2.67,33.54,10.93,55.89s30.86,32.56,30.86,32.56
				s17.25-10.21,30.86-32.56c13.61-22.36,10.94-55.89,10.94-55.89c-20.41,1.21-41.8-12.15-41.8-12.15S93.34,13.22,85.8,16.33
				 M84.49,2.91l-0.7,1.9c-0.3,0.8-0.93,1.43-1.73,1.73l-1.9,0.7c-0.21,0.08-0.21,0.38,0,0.46l1.86,0.69
				c0.83,0.31,1.48,0.96,1.78,1.78l0.69,1.86c0.08,0.21,0.38,0.21,0.46,0l0.67-1.81c0.31-0.86,0.99-1.53,1.85-1.85l1.81-0.67
				c0.22-0.08,0.22-0.38,0-0.46L87.54,6.6c-0.9-0.33-1.61-1.04-1.94-1.94l-0.65-1.75c-0.04-0.11-0.13-0.16-0.23-0.16
				S84.53,2.81,84.49,2.91 M62.95,0c-0.15,0.01-0.29,0.09-0.35,0.25l-1.11,3.01C61.02,4.53,60.02,5.53,58.75,6l-3.01,1.11
				c-0.34,0.13-0.34,0.61,0,0.73l2.95,1.09c1.31,0.48,2.33,1.51,2.82,2.82l1.09,2.95c0.12,0.34,0.61,0.34,0.73,0l1.06-2.87
				c0.5-1.35,1.57-2.42,2.92-2.92l2.87-1.06c0.34-0.13,0.34-0.61,0-0.73L67.42,6.1C66,5.56,64.88,4.44,64.36,3.02l-1.02-2.76
				c-0.06-0.16-0.2-0.25-0.35-0.25L62.95,0L62.95,0z"/>
		</defs>
		<use xlink:href="#SVGID_00000065770910499069529720000002833801018715187853_"  style="overflow:visible;fill:#8BB3B7;"/>
		<clipPath id="SVGID_00000056398385578529058640000005893624500365811121_">
			<use xlink:href="#SVGID_00000065770910499069529720000002833801018715187853_"  style="overflow:visible;"/>
		</clipPath>
		
			<rect x="53.94" style="clip-path:url(#SVGID_00000056398385578529058640000005893624500365811121_);fill:#8BB3B7;" width="88.94" height="110.67"/>
	</g>
</g>
<path class="st2" d="M52.95,164.85l-6.82,16.14l-8.18-16.14h-9.09l12.5,22.73c0.15,0.27,0.23,0.59,0.23,0.93
	c0,0.35-0.08,0.67-0.23,0.98c-0.33,0.7-0.94,1.04-1.82,1.04h-4.09v6.14c1.61,0.3,3.17,0.45,4.68,0.45c2.7,0,4.86-0.64,6.5-1.91
	c1.49-1.18,2.76-2.97,3.82-5.36l11.59-25L52.95,164.85L52.95,164.85z M73.78,183.49h9.09c1.82,0,2.73,0.91,2.73,2.73v1.36
	c0,1.82-0.91,2.73-2.73,2.73h-9.09V183.49z M65.59,164.85v31.82h19.09c3.18,0,5.49-0.72,6.93-2.16s2.16-3.75,2.16-6.93v-1.36
	c0-3.18-0.72-5.49-2.16-6.93c-1.44-1.44-3.75-2.16-6.93-2.16h-10.9v-5.91h17.05v-6.36H65.59V164.85z M113.01,174.4l3.64,10.68h-7.27
	L113.01,174.4z M108.46,164.85l-12.05,31.82h8.87l2.04-5.68h11.37l2.05,5.68h8.87l-12.05-31.82H108.46z M153.15,164.85v12.5h-11.36
	v-12.5h-8.18v31.82h8.18v-12.96h11.36v12.96h8.18v-31.82H153.15z M187.61,164.85L176.7,184.4v-19.55h-8.18v31.82h8.64l10.91-19.55
	v19.55h8.18v-31.82L187.61,164.85L187.61,164.85z M19.38,165.6c-0.99,0.8-1.81,1.84-2.48,3.11l-4.55,8.64H8.27v-12.5H0.08v31.82
	h8.18v-12.96h4.09l7.05,12.96h8.64l-8.87-16.14l4.32-8.18c0.18-0.33,0.45-0.64,0.82-0.93c0.36-0.29,0.77-0.43,1.23-0.43h1.82v-6.14
	c-1.97-0.3-3.33-0.46-4.09-0.46C21.66,164.4,20.36,164.8,19.38,165.6 M6.27,133.85c-2.17,0-3.74,0.49-4.72,1.47
	s-1.47,2.55-1.47,4.72v9.9c0,2.02,0.47,3.51,1.42,4.46c0.95,0.95,2.43,1.42,4.46,1.42c3.03,0,6.85-0.21,11.45-0.62v-4.18
	c-1.34,0.08-2.46,0.15-3.36,0.22c-0.9,0.06-1.63,0.1-2.2,0.12c-0.57,0.02-1.13,0.04-1.69,0.06s-1.09,0.04-1.61,0.05
	c-0.52,0.01-0.99,0.02-1.42,0.02c-0.43,0-0.79-0.14-1.07-0.42s-0.42-0.66-0.42-1.13v-9.9c0-1.24,0.62-1.86,1.86-1.86h9.9v-4.33
	L6.27,133.85L6.27,133.85z M20.44,133.85v21.66h5.57v-17.33h7.73v17.33h5.57v-21.66H20.44z M72.29,138.18h6.19
	c1.24,0,1.86,0.62,1.86,1.86v3.09c0,1.24-0.62,1.86-1.86,1.86h-6.19V138.18z M66.73,133.85v21.66h5.57v-6.19h7.43
	c2.17,0,3.74-0.49,4.72-1.47s1.47-2.55,1.47-4.72v-3.09c0-2.17-0.49-3.74-1.47-4.72s-2.55-1.47-4.72-1.47H66.73z M87.7,133.85v4.33
	h6.5v17.33h5.57v-17.33h6.5v-4.33H87.7z M114.56,133.85c-2.17,0-3.74,0.49-4.72,1.47s-1.47,2.55-1.47,4.72v9.9
	c0,2.02,0.47,3.51,1.42,4.46c0.95,0.95,2.43,1.42,4.46,1.42c3.03,0,6.85-0.21,11.45-0.62v-4.18c-1.34,0.08-2.46,0.15-3.36,0.22
	c-0.9,0.06-1.63,0.1-2.2,0.12c-0.57,0.02-1.13,0.04-1.69,0.06c-0.56,0.02-1.09,0.04-1.61,0.05c-0.52,0.01-0.99,0.02-1.42,0.02
	s-0.79-0.14-1.07-0.42s-0.42-0.66-0.42-1.13v-9.9c0-1.24,0.62-1.86,1.86-1.86h9.9v-4.33L114.56,133.85L114.56,133.85z
	 M146.98,133.85l-6.19,11.45l-6.19-11.45h-5.88v21.66h5.57v-12.07l4.33,7.73h4.33l4.33-7.73v12.07h5.57v-21.66H146.98z
	 M157.13,133.85v21.66h17.17v-4.33h-11.6v-4.49h9.13v-4.33h-9.13v-4.18h11.6v-4.33H157.13z M190.64,133.85v8.51h-7.74v-8.51h-5.57
	v21.66h5.57v-8.82h7.74v8.82h5.57v-21.66H190.64z M48.53,149.63v-9.9c0-1.24,0.62-1.86,1.86-1.86h5.26c1.24,0,1.86,0.62,1.86,1.86
	v9.9c0,1.24-0.62,1.86-1.86,1.86h-5.26C49.15,151.49,48.53,150.87,48.53,149.63 M49.15,133.54c-2.17,0-3.74,0.49-4.72,1.47
	s-1.47,2.55-1.47,4.72v9.9c0,2.17,0.49,3.74,1.47,4.72s2.55,1.47,4.72,1.47h7.73c2.17,0,3.74-0.49,4.72-1.47s1.47-2.55,1.47-4.72
	v-9.9c0-2.17-0.49-3.74-1.47-4.72s-2.55-1.47-4.72-1.47H49.15z"/>
<g>
	<g>
		<defs>
			<path id="SVGID_00000122722711292444270470000001784682419769455253_" d="M0,255.88v11.25h1.59l-0.02-9.85h5.78l0.02-1.4H0z
				 M36.42,262.04h3.52c0.86,0,1.5,0.15,1.94,0.46c0.43,0.31,0.65,0.78,0.65,1.42c0,1.29-0.86,1.93-2.59,1.93h-3.52V262.04z
				 M36.42,257.15h3.13c0.77,0,1.37,0.16,1.78,0.47c0.42,0.32,0.63,0.77,0.63,1.37s-0.21,1.05-0.62,1.36s-1.01,0.47-1.79,0.47h-3.13
				V257.15z M34.83,255.88v11.25h5.14c1.36,0,2.4-0.27,3.11-0.8c0.71-0.54,1.07-1.29,1.07-2.27c0-0.73-0.2-1.32-0.59-1.79
				s-0.97-0.79-1.73-0.97c0.56-0.21,0.99-0.54,1.29-0.96c0.31-0.43,0.46-0.95,0.46-1.56c0-0.93-0.34-1.65-1.04-2.14
				c-0.69-0.5-1.65-0.75-2.88-0.75h-4.83V255.88z M54.9,255.88v4.84h-6.46v-4.84h-1.61v11.25h1.61v-5.01h6.46v5.01h1.61v-11.25H54.9
				z M62.17,265.23c-0.54-0.49-0.81-1.18-0.81-2.07v-1.27c0.47-0.38,0.98-0.68,1.52-0.88s1.08-0.3,1.63-0.3
				c0.87,0,1.58,0.24,2.14,0.71s0.84,1.12,0.84,1.94c0,0.8-0.27,1.44-0.8,1.9c-0.53,0.47-1.28,0.7-2.23,0.7
				C63.46,265.97,62.71,265.72,62.17,265.23 M59.78,255.88v7.31c0,1.33,0.4,2.35,1.19,3.05c0.79,0.71,1.93,1.06,3.42,1.06
				c1.49,0,2.65-0.35,3.47-1.05s1.24-1.68,1.24-2.93c0-0.81-0.17-1.52-0.52-2.1c-0.35-0.59-0.84-1.04-1.47-1.34
				c-0.63-0.3-1.36-0.46-2.17-0.46c-1.19,0-2.38,0.33-3.58,0.98v-4.51h-1.58V255.88z M70.86,267.12h1.59v-11.25h-1.59V267.12z
				 M83.68,255.88v6.38c0,1.18-0.3,2.07-0.88,2.67c-0.59,0.6-1.39,0.9-2.39,0.9c-0.93,0-1.67-0.28-2.2-0.85
				c-0.54-0.57-0.8-1.39-0.8-2.47v-6.62H75.8v6.67c0,1.51,0.38,2.67,1.13,3.49c0.76,0.81,1.8,1.22,3.14,1.22
				c1.68,0,2.9-0.57,3.66-1.72v1.59h1.54v-11.25h-1.59V255.88z M100.76,255.88v6.38c0,1.18-0.29,2.07-0.88,2.67s-1.39,0.9-2.39,0.9
				c-0.93,0-1.67-0.28-2.2-0.85s-0.8-1.39-0.8-2.47v-6.62h-1.61v6.67c0,1.51,0.38,2.67,1.13,3.49c0.76,0.81,1.8,1.22,3.14,1.22
				c1.68,0,2.9-0.57,3.66-1.72v1.59h1.54v-11.25h-1.59V255.88z M140.48,255.88v3.45c0,1.19-0.3,2.08-0.88,2.68
				c-0.59,0.6-1.4,0.9-2.43,0.9c-0.95,0-1.7-0.29-2.23-0.85c-0.53-0.57-0.8-1.4-0.8-2.49v-3.7h-1.61v3.76
				c0,1.51,0.39,2.67,1.17,3.49c0.78,0.81,1.88,1.22,3.29,1.22c1.57,0,2.74-0.55,3.49-1.64v1.14c0,2.36-1.1,3.53-3.31,3.53
				c-1.5,0-2.74-0.48-3.73-1.45l-0.69,1.25c0.51,0.52,1.15,0.93,1.9,1.21s1.59,0.43,2.51,0.43c1.53,0,2.73-0.43,3.6-1.3
				c0.87-0.87,1.3-2.12,1.3-3.74v-7.9h-1.58V255.88z M151.75,255.88v5.37c-1.04,0.47-2.08,0.71-3.12,0.71
				c-0.93,0-1.65-0.23-2.16-0.67c-0.51-0.45-0.76-1.09-0.76-1.93v-3.47h-1.57v3.65c0,1.23,0.38,2.18,1.13,2.84
				c0.75,0.67,1.82,1,3.19,1c1.01,0,2.1-0.23,3.29-0.69v4.45h1.59v-11.25L151.75,255.88L151.75,255.88z M169.36,255.88v9.85h-4.68
				v-9.85h-1.57v9.85h-4.67v-9.85h-1.59v11.25h14.09v-11.25H169.36z M182.16,255.88v6.38c0,1.18-0.29,2.07-0.88,2.67
				c-0.59,0.6-1.39,0.9-2.39,0.9c-0.93,0-1.66-0.28-2.2-0.85c-0.53-0.57-0.8-1.39-0.8-2.47v-6.62h-1.61v6.67
				c0,1.51,0.38,2.67,1.13,3.49c0.76,0.81,1.8,1.22,3.14,1.22c1.68,0,2.9-0.57,3.66-1.72v1.59h1.54v-11.25h-1.59V255.88z
				 M193.72,255.88l-2.94,4.11l-2.94-4.11h-1.85l3.82,5.46l-4.1,5.78h1.85l3.21-4.48l3.23,4.48h1.9l-4.11-5.85l3.81-5.4h-1.88
				V255.88z M11.62,256.31c-0.71,0.37-1.26,0.93-1.65,1.67c-0.39,0.74-0.59,1.64-0.59,2.7v5.05H8.05l0.02,1.4h2.92v-6.6
				c0-1.09,0.27-1.92,0.82-2.48c0.55-0.56,1.31-0.84,2.28-0.84c0.98,0,1.73,0.28,2.27,0.84s0.81,1.39,0.81,2.48v6.6h1.62v-6.44
				c0-1.06-0.19-1.96-0.58-2.7c-0.39-0.74-0.94-1.3-1.65-1.67c-0.71-0.37-1.53-0.56-2.47-0.56
				C13.15,255.75,12.32,255.94,11.62,256.31 M23.39,260.66c0-1.15,0.29-2.01,0.86-2.6s1.37-0.88,2.39-0.88
				c1.02,0,1.81,0.3,2.39,0.88c0.57,0.59,0.86,1.46,0.86,2.6v1.96H23.4v-1.96H23.39z M23.12,257.06c-0.87,0.87-1.3,2.12-1.3,3.75
				v6.31h1.57v-3.1h6.49v3.1h1.61v-6.31c0-1.63-0.43-2.88-1.3-3.75c-0.87-0.87-2.05-1.31-3.55-1.31
				C25.16,255.75,23.99,256.18,23.12,257.06 M122.76,256.31c-0.71,0.37-1.26,0.93-1.65,1.67c-0.39,0.74-0.59,1.64-0.59,2.7v5.05
				h-1.33l0.02,1.4h2.92v-6.6c0-1.09,0.27-1.92,0.82-2.48s1.31-0.84,2.28-0.84s1.73,0.28,2.27,0.84c0.54,0.56,0.81,1.39,0.81,2.48
				v6.6h1.62v-6.44c0-1.06-0.2-1.96-0.59-2.7c-0.39-0.74-0.94-1.3-1.65-1.67c-0.71-0.37-1.53-0.56-2.47-0.56
				C124.29,255.75,123.46,255.94,122.76,256.31 M106.71,255.94c-0.63,0.16-1.23,0.4-1.8,0.72l0.51,1.32
				c0.48-0.3,0.99-0.52,1.53-0.67c0.54-0.15,1.07-0.22,1.6-0.22c0.8,0,1.47,0.17,1.99,0.51s0.79,0.81,0.79,1.4
				c0,0.52-0.2,0.93-0.6,1.23c-0.4,0.29-0.96,0.44-1.68,0.44h-2.39v1.3h2.51c0.83,0,1.48,0.15,1.94,0.46s0.69,0.74,0.69,1.31
				c0,0.66-0.31,1.19-0.92,1.57s-1.37,0.57-2.27,0.57c-0.62,0-1.24-0.1-1.85-0.29s-1.16-0.48-1.66-0.87l-0.56,1.19
				c0.61,0.45,1.29,0.79,2.02,1.01c0.74,0.23,1.48,0.34,2.23,0.34c0.82,0,1.59-0.13,2.29-0.39c0.7-0.26,1.26-0.64,1.69-1.14
				c0.42-0.5,0.63-1.08,0.63-1.74s-0.2-1.23-0.59-1.71c-0.4-0.48-0.95-0.81-1.66-1c0.56-0.21,0.99-0.54,1.31-0.96
				c0.32-0.43,0.47-0.93,0.47-1.49c0-0.63-0.19-1.18-0.58-1.65s-0.92-0.83-1.58-1.08s-1.39-0.37-2.19-0.37
				C107.97,255.7,107.34,255.78,106.71,255.94 M82.24,252.89c-0.01,0.42-0.16,0.74-0.46,0.97c-0.29,0.23-0.68,0.35-1.16,0.35
				c-0.5,0-0.9-0.12-1.18-0.35c-0.28-0.23-0.43-0.56-0.44-0.97h-1.14c0.01,0.71,0.25,1.25,0.73,1.63s1.15,0.57,2.03,0.57
				c0.87,0,1.54-0.19,2.02-0.58c0.48-0.39,0.72-0.93,0.73-1.62L82.24,252.89L82.24,252.89z"/>
		</defs>
		<use xlink:href="#SVGID_00000122722711292444270470000001784682419769455253_"  style="overflow:visible;fill:#8BB3B7;"/>
		<clipPath id="SVGID_00000153700486926698705560000005693407766757114518_">
			<use xlink:href="#SVGID_00000122722711292444270470000001784682419769455253_"  style="overflow:visible;"/>
		</clipPath>
		
			<rect y="252.89" style="clip-path:url(#SVGID_00000153700486926698705560000005693407766757114518_);fill:#8BB3B7;" width="195.9" height="15.94"/>
	</g>
</g>
</svg>
