<?xml version="1.0" encoding="utf-8"?>
<!-- Generator: Adobe Illustrator 25.4.1, SVG Export Plug-In . SVG Version: 6.00 Build 0)  -->
<svg version="1.1" id="Слой_1" xmlns="http://www.w3.org/2000/svg" xmlns:xlink="http://www.w3.org/1999/xlink" x="0px" y="0px"
	 viewBox="0 0 665.6 415.01" style="enable-background:new 0 0 665.6 415.01;" xml:space="preserve">
<style type="text/css">
	.st0{fill:#00B1C5;}
	.st1{fill:#1F3742;}
	.st2{clip-path:url(#SVGID_00000139265019202562735150000009741347096776009881_);fill:#1F3742;}
</style>
<polygon class="st0" points="55.31,234.1 0,415.01 610.29,415.01 665.6,234.1 "/>
<polygon class="st1" points="260.35,166.28 260.35,53.15 310.08,53.15 310.08,90.62 332.95,90.62 332.95,53.15 382.67,53.15 
	382.67,166.28 332.95,166.28 332.95,128.79 310.08,128.79 310.08,166.28 "/>
<polygon class="st1" points="506.42,103.37 525.31,53.15 476.83,53.15 461.73,90.62 452.84,90.62 452.84,53.15 403.11,53.15 
	403.11,166.28 452.84,166.28 452.84,128.8 464.72,128.8 479.82,166.28 529.45,166.28 "/>
<g>
	<defs>
		<rect id="SVGID_1_" width="665.6" height="415.01"/>
	</defs>
	<clipPath id="SVGID_00000147188216299487132180000013694084002249680004_">
		<use xlink:href="#SVGID_1_"  style="overflow:visible;"/>
	</clipPath>
	<path style="clip-path:url(#SVGID_00000147188216299487132180000013694084002249680004_);fill:#1F3742;" d="M617.69,65.74
		c-15.06,0-25.4,5.87-32.45,13.4c0.23-9.65,7.28-19.76,16.93-23.75c16.7-7.06,35.98-2.12,49.63-14.12V0c0,0-11.67,4.79-33.19,7.32
		c-12.93,1.53-31.27,5.63-47.48,15.86c-20.23,12.7-34.58,33.62-34.58,75.96c0,55.27,31.98,70.79,64.91,70.79
		c32.45,0,61.38-16.45,61.38-52.67C662.84,82.44,642.14,65.74,617.69,65.74 M599.81,131.82c-12,0-14.82-9.39-14.82-16.7
		c0-7.28,2.82-16.45,14.82-16.45c11.76,0,14.59,9.17,14.59,16.45C614.39,122.43,611.56,131.82,599.81,131.82"/>
	<path style="clip-path:url(#SVGID_00000147188216299487132180000013694084002249680004_);fill:#1F3742;" d="M243.08,109.71
		c0-27.82-12.63-54.11-41.1-59.38c-0.64-0.12-1.3-0.23-1.97-0.32c-1.67-0.24-3.4-0.44-5.18-0.53c-1.18-0.06-2.38-0.1-3.6-0.1
		c-1.05,0-2.08,0.02-3.11,0.09c-0.04,0-0.08,0-0.13,0.01c-9.09,0.54-17.08,3.37-23.17,7.63c-4.21,2.8-7.76,6.15-10.59,9.7
		l-4.18-13.66h-39.43v158.32h49.73v-52.03c3.49,3.13,7.89,5.81,13.17,7.69c4.93,1.99,10.59,2.92,17.7,2.92
		C227.29,170.05,243.08,140.81,243.08,109.71 M174.74,130.21c-6.83,0-12.49-4.01-14.61-8.01V97.22c2.35-4.01,7.78-8.01,14.61-8.01
		c12.01,0,17.2,10.37,17.2,20.5c0,1.26-0.08,2.55-0.25,3.78C190.54,122.28,185.24,130.21,174.74,130.21"/>
</g>
</svg>
