<svg version="1.1" id="Слой_1" xmlns="http://www.w3.org/2000/svg" xmlns:xlink="http://www.w3.org/1999/xlink" x="0" y="0" viewBox="0 0 196.25 268.83" xml:space="preserve"><style/><defs><path id="SVGID_1_" d="M92.55 232.14h8.29v-1.94h-8.29v1.94zm-38.43-19.61v1.99h7.39v28.25h2.2v-30.24h-9.59zm16.28 0v1.99h7.39v28.25H80v-30.24h-9.6zm115.6 0v1.99h7.39v28.25h2.2v-30.24H186zm-181.53.86c-1.77.72-3.23 1.74-4.39 3.07l1.56 1.38c1.04-1.18 2.27-2.06 3.69-2.63 1.43-.57 3.09-.86 4.99-.86 2.48 0 4.37.55 5.68 1.64 1.31 1.1 1.97 2.61 1.97 4.54 0 1.27-.3 2.5-.89 3.69-.59 1.2-1.72 2.63-3.39 4.3L.9 241.21v1.55h20.78v-1.99H4.14l11.14-11.1c1.9-1.87 3.2-3.51 3.89-4.92.69-1.41 1.04-2.9 1.04-4.45 0-2.45-.88-4.39-2.63-5.83-1.76-1.44-4.12-2.16-7.08-2.16-2.26 0-4.26.36-6.03 1.08m29.02 25.99c-1.46-1.05-2.58-2.58-3.39-4.58s-1.21-4.38-1.21-7.15c0-2.76.4-5.15 1.21-7.15s1.94-3.53 3.39-4.58 3.13-1.58 5.03-1.58c1.9 0 3.58.53 5.03 1.58s2.58 2.58 3.39 4.58 1.21 4.38 1.21 7.15c0 2.77-.4 5.15-1.21 7.15-.81 2-1.94 3.53-3.39 4.58s-3.13 1.58-5.03 1.58c-1.9-.01-3.57-.53-5.03-1.58m-1.12-25.19c-1.8 1.25-3.2 3.03-4.19 5.34s-1.49 5.01-1.49 8.12.5 5.82 1.49 8.12 2.39 4.08 4.19 5.33c1.8 1.25 3.85 1.88 6.16 1.88 2.3 0 4.36-.63 6.16-1.88s3.2-3.03 4.19-5.33c.99-2.3 1.49-5.01 1.49-8.12s-.5-5.82-1.49-8.12c-.99-2.3-2.39-4.08-4.19-5.34-1.8-1.25-3.85-1.88-6.16-1.88s-4.36.63-6.16 1.88m78.62-.8c-1.77.72-3.23 1.74-4.39 3.07l1.56 1.38c1.04-1.18 2.27-2.06 3.69-2.63 1.43-.57 3.09-.86 4.99-.86 2.48 0 4.37.55 5.68 1.64 1.31 1.1 1.97 2.61 1.97 4.54 0 1.27-.3 2.5-.89 3.69-.59 1.2-1.72 2.63-3.39 4.3l-12.79 12.7v1.55h20.78v-1.99h-17.54l11.14-11.1c1.9-1.87 3.2-3.51 3.89-4.92s1.04-2.9 1.04-4.45c0-2.45-.88-4.39-2.64-5.83s-4.12-2.16-7.08-2.16c-2.24-.01-4.25.35-6.02 1.07m29.02 25.99c-1.46-1.05-2.59-2.58-3.39-4.58-.81-2-1.21-4.38-1.21-7.15 0-2.76.4-5.15 1.21-7.15.81-2 1.94-3.53 3.39-4.58s3.13-1.58 5.03-1.58 3.58.53 5.03 1.58 2.58 2.58 3.39 4.58 1.21 4.38 1.21 7.15c0 2.77-.4 5.15-1.21 7.15-.81 2-1.94 3.53-3.39 4.58-1.46 1.05-3.13 1.58-5.03 1.58-1.89-.01-3.57-.53-5.03-1.58m-1.12-25.19c-1.8 1.25-3.2 3.03-4.19 5.34-.99 2.3-1.49 5.01-1.49 8.12s.5 5.82 1.49 8.12c.99 2.3 2.39 4.08 4.19 5.33s3.85 1.88 6.16 1.88c2.3 0 4.35-.63 6.15-1.88s3.2-3.03 4.19-5.33 1.49-5.01 1.49-8.12-.5-5.82-1.49-8.12c-.99-2.3-2.39-4.08-4.19-5.34-1.8-1.25-3.85-1.88-6.15-1.88-2.31 0-4.36.63-6.16 1.88m26.7-.8c-1.77.72-3.23 1.74-4.39 3.07l1.56 1.38c1.04-1.18 2.27-2.06 3.69-2.63 1.43-.57 3.09-.86 4.99-.86 2.48 0 4.37.55 5.68 1.64 1.31 1.1 1.97 2.61 1.97 4.54 0 1.27-.3 2.5-.89 3.69-.59 1.2-1.72 2.63-3.39 4.3l-12.79 12.7v1.55h20.78v-1.99h-17.54l11.15-11.1c1.9-1.87 3.2-3.51 3.89-4.92s1.04-2.9 1.04-4.45c0-2.45-.88-4.39-2.63-5.83-1.76-1.44-4.12-2.16-7.08-2.16-2.26-.01-4.27.35-6.04 1.07"/></defs><use xlink:href="#SVGID_1_" overflow="visible" fill="#8bb3b7"/><clipPath id="SVGID_00000091701479743537127050000003098462680848545956_"><use xlink:href="#SVGID_1_" overflow="visible"/></clipPath><path clip-path="url(#SVGID_00000091701479743537127050000003098462680848545956_)" fill="#8bb3b7" d="M.08 212.31h195.5v30.67H.08z"/><defs><path id="SVGID_00000065770910499069529720000002833801018715187853_" d="M74.29 10.44l-1.36 3.66a5.646 5.646 0 01-3.33 3.33l-3.66 1.35c-.21.08-.31.26-.31.45s.1.37.31.45l3.59 1.33c1.59.59 2.85 1.84 3.43 3.43l1.33 3.59c.15.41.74.41.89 0l1.29-3.5a6.02 6.02 0 013.56-3.56l3.5-1.29c.21-.08.31-.26.31-.45 0-.18-.1-.37-.31-.45l-3.37-1.24a6.338 6.338 0 01-3.74-3.74l-1.25-3.37a.467.467 0 00-.45-.31.49.49 0 00-.43.32m8.4 65.79l-1.84-4.97a8.063 8.063 0 00-4.75-4.76l-4.97-1.84c-.57-.21-.57-1.02 0-1.24l5.07-1.88a7.779 7.779 0 004.61-4.61l1.88-5.07c.21-.57 1.02-.57 1.24 0l1.73 4.66c.89 2.4 2.78 4.29 5.18 5.18l4.66 1.73c.57.21.57 1.02 0 1.24l-4.84 1.79a8.365 8.365 0 00-4.93 4.93l-1.79 4.84c-.11.29-.36.43-.62.43-.27 0-.53-.14-.63-.43M70.04 51.01l-1.22-3.3a5.36 5.36 0 00-3.16-3.16l-3.3-1.22a.437.437 0 010-.82l3.37-1.25a5.201 5.201 0 003.07-3.07l1.25-3.37c.14-.38.68-.38.82 0l1.15 3.1c.59 1.6 1.85 2.85 3.44 3.44l3.1 1.15c.38.14.38.68 0 .82l-3.22 1.19a5.537 5.537 0 00-3.28 3.28l-1.19 3.22c-.07.19-.24.29-.41.29s-.35-.11-.42-.3m52.63-14.31l-.98-2.64a4.232 4.232 0 00-2.53-2.52l-2.64-.98c-.31-.11-.31-.54 0-.66l2.69-1a4.147 4.147 0 002.45-2.45l1-2.69c.11-.3.54-.3.66 0l.92 2.48a4.668 4.668 0 002.75 2.75l2.48.91c.31.11.31.54 0 .66l-2.57.95a4.46 4.46 0 00-2.62 2.62l-.95 2.57a.35.35 0 01-.66 0M97.33 51.08L95 44.79a10.167 10.167 0 00-6.01-6.01l-6.29-2.33c-.72-.27-.72-1.29 0-1.56l6.42-2.37c2.7-1 4.84-3.13 5.84-5.84l2.37-6.42a.83.83 0 011.56 0l2.18 5.9c1.12 3.04 3.52 5.43 6.55 6.55l5.9 2.18a.83.83 0 010 1.56l-6.12 2.27a10.568 10.568 0 00-6.24 6.24l-2.27 6.12c-.13.36-.46.54-.78.54s-.65-.18-.78-.54M85.8 16.33l1.03.38c2.35.87 2.35 4.19 0 5.06l-1.29.48a13.236 13.236 0 00-7.8 7.8l-.48 1.29c-.87 2.35-4.19 2.35-5.06 0l-.54-1.46a12.83 12.83 0 00-7.56-7.56l-.57-.21c-2.3.19-4.61.25-6.92.11 0 0-2.67 33.54 10.93 55.89s30.86 32.56 30.86 32.56 17.25-10.21 30.86-32.56c13.61-22.36 10.94-55.89 10.94-55.89-20.41 1.21-41.8-12.15-41.8-12.15s-5.06 3.15-12.6 6.26M84.49 2.91l-.7 1.9c-.3.8-.93 1.43-1.73 1.73l-1.9.7c-.21.08-.21.38 0 .46l1.86.69c.83.31 1.48.96 1.78 1.78l.69 1.86c.08.21.38.21.46 0l.67-1.81c.31-.86.99-1.53 1.85-1.85l1.81-.67c.22-.08.22-.38 0-.46l-1.74-.64c-.9-.33-1.61-1.04-1.94-1.94l-.65-1.75c-.04-.11-.13-.16-.23-.16s-.19.06-.23.16M62.95 0c-.15.01-.29.09-.35.25l-1.11 3.01A4.636 4.636 0 0158.75 6l-3.01 1.11c-.34.13-.34.61 0 .73l2.95 1.09c1.31.48 2.33 1.51 2.82 2.82l1.09 2.95c.12.34.61.34.73 0l1.06-2.87c.5-1.35 1.57-2.42 2.92-2.92l2.87-1.06c.34-.13.34-.61 0-.73L67.42 6.1a5.228 5.228 0 01-3.06-3.08L63.34.26a.372.372 0 00-.35-.25L62.95 0z"/></defs><use xlink:href="#SVGID_00000065770910499069529720000002833801018715187853_" overflow="visible" fill="#8bb3b7"/><clipPath id="SVGID_00000056398385578529058640000005893624500365811121_"><use xlink:href="#SVGID_00000065770910499069529720000002833801018715187853_" overflow="visible"/></clipPath><path clip-path="url(#SVGID_00000056398385578529058640000005893624500365811121_)" fill="#8bb3b7" d="M53.94 0h88.94v110.67H53.94z"/><path d="M52.95 164.85l-6.82 16.14-8.18-16.14h-9.09l12.5 22.73c.15.27.23.59.23.93 0 .35-.08.67-.23.98-.33.7-.94 1.04-1.82 1.04h-4.09v6.14c1.61.3 3.17.45 4.68.45 2.7 0 4.86-.64 6.5-1.91 1.49-1.18 2.76-2.97 3.82-5.36l11.59-25h-9.09zm20.83 18.64h9.09c1.82 0 2.73.91 2.73 2.73v1.36c0 1.82-.91 2.73-2.73 2.73h-9.09v-6.82zm-8.19-18.64v31.82h19.09c3.18 0 5.49-.72 6.93-2.16s2.16-3.75 2.16-6.93v-1.36c0-3.18-.72-5.49-2.16-6.93-1.44-1.44-3.75-2.16-6.93-2.16h-10.9v-5.91h17.05v-6.36H65.59v-.01zm47.42 9.55l3.64 10.68h-7.27l3.63-10.68zm-4.55-9.55l-12.05 31.82h8.87l2.04-5.68h11.37l2.05 5.68h8.87l-12.05-31.82h-9.1zm44.69 0v12.5h-11.36v-12.5h-8.18v31.82h8.18v-12.96h11.36v12.96h8.18v-31.82h-8.18zm34.46 0L176.7 184.4v-19.55h-8.18v31.82h8.64l10.91-19.55v19.55h8.18v-31.82h-8.64zm-168.23.75c-.99.8-1.81 1.84-2.48 3.11l-4.55 8.64H8.27v-12.5H.08v31.82h8.18v-12.96h4.09l7.05 12.96h8.64l-8.87-16.14 4.32-8.18c.18-.33.45-.64.82-.93.36-.29.77-.43 1.23-.43h1.82v-6.14c-1.97-.3-3.33-.46-4.09-.46-1.61.01-2.91.41-3.89 1.21M6.27 133.85c-2.17 0-3.74.49-4.72 1.47s-1.47 2.55-1.47 4.72v9.9c0 2.02.47 3.51 1.42 4.46.95.95 2.43 1.42 4.46 1.42 3.03 0 6.85-.21 11.45-.62v-4.18c-1.34.08-2.46.15-3.36.22-.9.06-1.63.1-2.2.12l-1.69.06c-.56.02-1.09.04-1.61.05-.52.01-.99.02-1.42.02-.43 0-.79-.14-1.07-.42s-.42-.66-.42-1.13v-9.9c0-1.24.62-1.86 1.86-1.86h9.9v-4.33H6.27zm14.17 0v21.66h5.57v-17.33h7.73v17.33h5.57v-21.66H20.44zm51.85 4.33h6.19c1.24 0 1.86.62 1.86 1.86v3.09c0 1.24-.62 1.86-1.86 1.86h-6.19v-6.81zm-5.56-4.33v21.66h5.57v-6.19h7.43c2.17 0 3.74-.49 4.72-1.47s1.47-2.55 1.47-4.72v-3.09c0-2.17-.49-3.74-1.47-4.72s-2.55-1.47-4.72-1.47h-13zm20.97 0v4.33h6.5v17.33h5.57v-17.33h6.5v-4.33H87.7zm26.86 0c-2.17 0-3.74.49-4.72 1.47s-1.47 2.55-1.47 4.72v9.9c0 2.02.47 3.51 1.42 4.46.95.95 2.43 1.42 4.46 1.42 3.03 0 6.85-.21 11.45-.62v-4.18c-1.34.08-2.46.15-3.36.22-.9.06-1.63.1-2.2.12l-1.69.06c-.56.02-1.09.04-1.61.05-.52.01-.99.02-1.42.02s-.79-.14-1.07-.42-.42-.66-.42-1.13v-9.9c0-1.24.62-1.86 1.86-1.86h9.9v-4.33h-11.13zm32.42 0l-6.19 11.45-6.19-11.45h-5.88v21.66h5.57v-12.07l4.33 7.73h4.33l4.33-7.73v12.07h5.57v-21.66h-5.87zm10.15 0v21.66h17.17v-4.33h-11.6v-4.49h9.13v-4.33h-9.13v-4.18h11.6v-4.33h-17.17zm33.51 0v8.51h-7.74v-8.51h-5.57v21.66h5.57v-8.82h7.74v8.82h5.57v-21.66h-5.57zM48.53 149.63v-9.9c0-1.24.62-1.86 1.86-1.86h5.26c1.24 0 1.86.62 1.86 1.86v9.9c0 1.24-.62 1.86-1.86 1.86h-5.26c-1.24 0-1.86-.62-1.86-1.86m.62-16.09c-2.17 0-3.74.49-4.72 1.47s-1.47 2.55-1.47 4.72v9.9c0 2.17.49 3.74 1.47 4.72s2.55 1.47 4.72 1.47h7.73c2.17 0 3.74-.49 4.72-1.47s1.47-2.55 1.47-4.72v-9.9c0-2.17-.49-3.74-1.47-4.72s-2.55-1.47-4.72-1.47h-7.73z" fill="#8bb3b7"/><defs><path id="SVGID_00000122722711292444270470000001784682419769455253_" d="M0 255.88v11.25h1.59l-.02-9.85h5.78l.02-1.4H0zm36.42 6.16h3.52c.86 0 1.5.15 1.94.46.43.31.65.78.65 1.42 0 1.29-.86 1.93-2.59 1.93h-3.52v-3.81zm0-4.89h3.13c.77 0 1.37.16 1.78.47.42.32.63.77.63 1.37s-.21 1.05-.62 1.36-1.01.47-1.79.47h-3.13v-3.67zm-1.59-1.27v11.25h5.14c1.36 0 2.4-.27 3.11-.8.71-.54 1.07-1.29 1.07-2.27 0-.73-.2-1.32-.59-1.79s-.97-.79-1.73-.97c.56-.21.99-.54 1.29-.96.31-.43.46-.95.46-1.56 0-.93-.34-1.65-1.04-2.14-.69-.5-1.65-.75-2.88-.75h-4.83v-.01zm20.07 0v4.84h-6.46v-4.84h-1.61v11.25h1.61v-5.01h6.46v5.01h1.61v-11.25H54.9zm7.27 9.35c-.54-.49-.81-1.18-.81-2.07v-1.27c.47-.38.98-.68 1.52-.88s1.08-.3 1.63-.3c.87 0 1.58.24 2.14.71s.84 1.12.84 1.94c0 .8-.27 1.44-.8 1.9-.53.47-1.28.7-2.23.7-1 .01-1.75-.24-2.29-.73m-2.39-9.35v7.31c0 1.33.4 2.35 1.19 3.05.79.71 1.93 1.06 3.42 1.06s2.65-.35 3.47-1.05 1.24-1.68 1.24-2.93c0-.81-.17-1.52-.52-2.1-.35-.59-.84-1.04-1.47-1.34-.63-.3-1.36-.46-2.17-.46-1.19 0-2.38.33-3.58.98v-4.51h-1.58v-.01zm11.08 11.24h1.59v-11.25h-1.59v11.25zm12.82-11.24v6.38c0 1.18-.3 2.07-.88 2.67-.59.6-1.39.9-2.39.9-.93 0-1.67-.28-2.2-.85-.54-.57-.8-1.39-.8-2.47v-6.62H75.8v6.67c0 1.51.38 2.67 1.13 3.49.76.81 1.8 1.22 3.14 1.22 1.68 0 2.9-.57 3.66-1.72v1.59h1.54v-11.25h-1.59v-.01zm17.08 0v6.38c0 1.18-.29 2.07-.88 2.67s-1.39.9-2.39.9c-.93 0-1.67-.28-2.2-.85s-.8-1.39-.8-2.47v-6.62h-1.61v6.67c0 1.51.38 2.67 1.13 3.49.76.81 1.8 1.22 3.14 1.22 1.68 0 2.9-.57 3.66-1.72v1.59h1.54v-11.25h-1.59v-.01zm39.72 0v3.45c0 1.19-.3 2.08-.88 2.68-.59.6-1.4.9-2.43.9-.95 0-1.7-.29-2.23-.85-.53-.57-.8-1.4-.8-2.49v-3.7h-1.61v3.76c0 1.51.39 2.67 1.17 3.49.78.81 1.88 1.22 3.29 1.22 1.57 0 2.74-.55 3.49-1.64v1.14c0 2.36-1.1 3.53-3.31 3.53-1.5 0-2.74-.48-3.73-1.45l-.69 1.25c.51.52 1.15.93 1.9 1.21s1.59.43 2.51.43c1.53 0 2.73-.43 3.6-1.3.87-.87 1.3-2.12 1.3-3.74v-7.9h-1.58v.01zm11.27 0v5.37c-1.04.47-2.08.71-3.12.71-.93 0-1.65-.23-2.16-.67-.51-.45-.76-1.09-.76-1.93v-3.47h-1.57v3.65c0 1.23.38 2.18 1.13 2.84.75.67 1.82 1 3.19 1 1.01 0 2.1-.23 3.29-.69v4.45h1.59v-11.25l-1.59-.01zm17.61 0v9.85h-4.68v-9.85h-1.57v9.85h-4.67v-9.85h-1.59v11.25h14.09v-11.25h-1.58zm12.8 0v6.38c0 1.18-.29 2.07-.88 2.67-.59.6-1.39.9-2.39.9-.93 0-1.66-.28-2.2-.85-.53-.57-.8-1.39-.8-2.47v-6.62h-1.61v6.67c0 1.51.38 2.67 1.13 3.49.76.81 1.8 1.22 3.14 1.22 1.68 0 2.9-.57 3.66-1.72v1.59h1.54v-11.25h-1.59v-.01zm11.56 0l-2.94 4.11-2.94-4.11h-1.85l3.82 5.46-4.1 5.78h1.85l3.21-4.48 3.23 4.48h1.9l-4.11-5.85 3.81-5.4h-1.88v.01zm-182.1.43c-.71.37-1.26.93-1.65 1.67-.39.74-.59 1.64-.59 2.7v5.05H8.05l.02 1.4h2.92v-6.6c0-1.09.27-1.92.82-2.48.55-.56 1.31-.84 2.28-.84.98 0 1.73.28 2.27.84s.81 1.39.81 2.48v6.6h1.62v-6.44c0-1.06-.19-1.96-.58-2.7-.39-.74-.94-1.3-1.65-1.67-.71-.37-1.53-.56-2.47-.56-.94-.01-1.77.18-2.47.55m11.77 4.35c0-1.15.29-2.01.86-2.6s1.37-.88 2.39-.88 1.81.3 2.39.88c.57.59.86 1.46.86 2.6v1.96H23.4v-1.96h-.01zm-.27-3.6c-.87.87-1.3 2.12-1.3 3.75v6.31h1.57v-3.1h6.49v3.1h1.61v-6.31c0-1.63-.43-2.88-1.3-3.75-.87-.87-2.05-1.31-3.55-1.31-1.48 0-2.65.43-3.52 1.31m99.64-.75c-.71.37-1.26.93-1.65 1.67-.39.74-.59 1.64-.59 2.7v5.05h-1.33l.02 1.4h2.92v-6.6c0-1.09.27-1.92.82-2.48s1.31-.84 2.28-.84 1.73.28 2.27.84c.54.56.81 1.39.81 2.48v6.6h1.62v-6.44c0-1.06-.2-1.96-.59-2.7-.39-.74-.94-1.3-1.65-1.67-.71-.37-1.53-.56-2.47-.56-.93-.01-1.76.18-2.46.55m-16.05-.37c-.63.16-1.23.4-1.8.72l.51 1.32c.48-.3.99-.52 1.53-.67.54-.15 1.07-.22 1.6-.22.8 0 1.47.17 1.99.51s.79.81.79 1.4c0 .52-.2.93-.6 1.23-.4.29-.96.44-1.68.44h-2.39v1.3h2.51c.83 0 1.48.15 1.94.46s.69.74.69 1.31c0 .66-.31 1.19-.92 1.57s-1.37.57-2.27.57c-.62 0-1.24-.1-1.85-.29s-1.16-.48-1.66-.87l-.56 1.19c.61.45 1.29.79 2.02 1.01.74.23 1.48.34 2.23.34.82 0 1.59-.13 2.29-.39s1.26-.64 1.69-1.14c.42-.5.63-1.08.63-1.74s-.2-1.23-.59-1.71c-.4-.48-.95-.81-1.66-1 .56-.21.99-.54 1.31-.96.32-.43.47-.93.47-1.49 0-.63-.19-1.18-.58-1.65s-.92-.83-1.58-1.08-1.39-.37-2.19-.37a6.36 6.36 0 00-1.87.21m-24.47-3.05c-.01.42-.16.74-.46.97-.29.23-.68.35-1.16.35-.5 0-.9-.12-1.18-.35-.28-.23-.43-.56-.44-.97h-1.14c.01.71.25 1.25.73 1.63s1.15.57 2.03.57c.87 0 1.54-.19 2.02-.58.48-.39.72-.93.73-1.62h-1.13z"/></defs><use xlink:href="#SVGID_00000122722711292444270470000001784682419769455253_" overflow="visible" fill="#8bb3b7"/><clipPath id="SVGID_00000153700486926698705560000005693407766757114518_"><use xlink:href="#SVGID_00000122722711292444270470000001784682419769455253_" overflow="visible"/></clipPath><path clip-path="url(#SVGID_00000153700486926698705560000005693407766757114518_)" fill="#8bb3b7" d="M0 252.89h195.9v15.94H0z"/></svg>