<svg xmlns="http://www.w3.org/2000/svg" xmlns:xlink="http://www.w3.org/1999/xlink" viewBox="0 0 665.6 415.01"><path fill="#00b1c5" d="M55.31 234.1L0 415.01h610.29L665.6 234.1z"/><path d="M260.35 166.28V53.15h49.73v37.47h22.87V53.15h49.72v113.13h-49.72v-37.49h-22.87v37.49zm246.07-62.91l18.89-50.22h-48.48l-15.1 37.47h-8.89V53.15h-49.73v113.13h49.73V128.8h11.88l15.1 37.48h49.63z" fill="#1f3742"/><defs><path id="a" d="M0 0h665.6v415.01H0z"/></defs><clipPath id="b"><use xlink:href="#a" overflow="visible"/></clipPath><path d="M617.69 65.74c-15.06 0-25.4 5.87-32.45 13.4.23-9.65 7.28-19.76 16.93-23.75 16.7-7.06 35.98-2.12 49.63-14.12V0s-11.67 4.79-33.19 7.32c-12.93 1.53-31.27 5.63-47.48 15.86-20.23 12.7-34.58 33.62-34.58 75.96 0 55.27 31.98 70.79 64.91 70.79 32.45 0 61.38-16.45 61.38-52.67 0-34.82-20.7-51.52-45.15-51.52m-17.88 66.08c-12 0-14.82-9.39-14.82-16.7 0-7.28 2.82-16.45 14.82-16.45 11.76 0 14.59 9.17 14.59 16.45-.01 7.31-2.84 16.7-14.59 16.7m-356.73-22.11c0-27.82-12.63-54.11-41.1-59.38-.64-.12-1.3-.23-1.97-.32-1.67-.24-3.4-.44-5.18-.53-1.18-.06-2.38-.1-3.6-.1-1.05 0-2.08.02-3.11.09-.04 0-.08 0-.13.01-9.09.54-17.08 3.37-23.17 7.63-4.21 2.8-7.76 6.15-10.59 9.7l-4.18-13.66h-39.43v158.32h49.73v-52.03c3.49 3.13 7.89 5.81 13.17 7.69 4.93 1.99 10.59 2.92 17.7 2.92 36.07 0 51.86-29.24 51.86-60.34m-68.34 20.5c-6.83 0-12.49-4.01-14.61-8.01V97.22c2.35-4.01 7.78-8.01 14.61-8.01 12.01 0 17.2 10.37 17.2 20.5 0 1.26-.08 2.55-.25 3.78-1.15 8.79-6.45 16.72-16.95 16.72" clip-path="url(#b)" fill="#1f3742"/></svg>